<svg width="62" height="62" viewBox="0 0 62 62" fill="none" xmlns="http://www.w3.org/2000/svg">
<path fill-rule="evenodd" clip-rule="evenodd" d="M14.25 2.375L4.75 2.375C3.43832 2.375 2.375 3.43832 2.375 4.75L2.375 14.25C2.375 15.5617 3.43832 16.625 4.75 16.625L14.25 16.625C15.5617 16.625 16.625 15.5617 16.625 14.25L16.625 4.75C16.625 3.43833 15.5617 2.375 14.25 2.375ZM4.75 8.30517e-07C2.12665 3.71835e-07 -3.71835e-07 2.12665 -8.30516e-07 4.75L-2.49155e-06 14.25C-2.95023e-06 16.8733 2.12664 19 4.75 19L14.25 19C16.8734 19 19 16.8734 19 14.25L19 4.75C19 2.12665 16.8734 2.95023e-06 14.25 2.49155e-06L4.75 8.30517e-07Z" fill="#00719C"/>
<path fill-rule="evenodd" clip-rule="evenodd" d="M36 2.375L26 2.375C24.6193 2.375 23.5 3.43832 23.5 4.75L23.5 14.25C23.5 15.5617 24.6193 16.625 26 16.625L36 16.625C37.3807 16.625 38.5 15.5617 38.5 14.25L38.5 4.75C38.5 3.43833 37.3807 2.375 36 2.375ZM26 8.74228e-07C23.2386 3.91405e-07 21 2.12665 21 4.75L21 14.25C21 16.8733 23.2386 19 26 19L36 19C38.7614 19 41 16.8734 41 14.25L41 4.75C41 2.12665 38.7614 3.10551e-06 36 2.62268e-06L26 8.74228e-07Z" fill="#00719C"/>
<path fill-rule="evenodd" clip-rule="evenodd" d="M57.25 2.375L47.75 2.375C46.4383 2.375 45.375 3.43832 45.375 4.75L45.375 14.25C45.375 15.5617 46.4383 16.625 47.75 16.625L57.25 16.625C58.5617 16.625 59.625 15.5617 59.625 14.25L59.625 4.75C59.625 3.43833 58.5617 2.375 57.25 2.375ZM47.75 8.30517e-07C45.1266 3.71835e-07 43 2.12665 43 4.75L43 14.25C43 16.8733 45.1266 19 47.75 19L57.25 19C59.8734 19 62 16.8734 62 14.25L62 4.75C62 2.12665 59.8734 2.95023e-06 57.25 2.49155e-06L47.75 8.30517e-07Z" fill="#00719C"/>
<path fill-rule="evenodd" clip-rule="evenodd" d="M14.25 24.375L4.75 24.375C3.43832 24.375 2.375 25.4383 2.375 26.75L2.375 36.25C2.375 37.5617 3.43832 38.625 4.75 38.625L14.25 38.625C15.5617 38.625 16.625 37.5617 16.625 36.25L16.625 26.75C16.625 25.4383 15.5617 24.375 14.25 24.375ZM4.75 22C2.12665 22 -3.71835e-07 24.1266 -8.30516e-07 26.75L-2.49155e-06 36.25C-2.95023e-06 38.8733 2.12664 41 4.75 41L14.25 41C16.8734 41 19 38.8734 19 36.25L19 26.75C19 24.1267 16.8734 22 14.25 22L4.75 22Z" fill="#00719C"/>
<path fill-rule="evenodd" clip-rule="evenodd" d="M36 24.375L26 24.375C24.6193 24.375 23.5 25.4383 23.5 26.75L23.5 36.25C23.5 37.5617 24.6193 38.625 26 38.625L36 38.625C37.3807 38.625 38.5 37.5617 38.5 36.25L38.5 26.75C38.5 25.4383 37.3807 24.375 36 24.375ZM26 22C23.2386 22 21 24.1266 21 26.75L21 36.25C21 38.8733 23.2386 41 26 41L36 41C38.7614 41 41 38.8734 41 36.25L41 26.75C41 24.1267 38.7614 22 36 22L26 22Z" fill="#00719C"/>
<path fill-rule="evenodd" clip-rule="evenodd" d="M57.25 24.375L47.75 24.375C46.4383 24.375 45.375 25.4383 45.375 26.75L45.375 36.25C45.375 37.5617 46.4383 38.625 47.75 38.625L57.25 38.625C58.5617 38.625 59.625 37.5617 59.625 36.25L59.625 26.75C59.625 25.4383 58.5617 24.375 57.25 24.375ZM47.75 22C45.1266 22 43 24.1266 43 26.75L43 36.25C43 38.8733 45.1266 41 47.75 41L57.25 41C59.8734 41 62 38.8734 62 36.25L62 26.75C62 24.1267 59.8734 22 57.25 22L47.75 22Z" fill="#00719C"/>
<path fill-rule="evenodd" clip-rule="evenodd" d="M14.25 45.375L4.75 45.375C3.43832 45.375 2.375 46.4383 2.375 47.75L2.375 57.25C2.375 58.5617 3.43832 59.625 4.75 59.625L14.25 59.625C15.5617 59.625 16.625 58.5617 16.625 57.25L16.625 47.75C16.625 46.4383 15.5617 45.375 14.25 45.375ZM4.75 43C2.12665 43 -3.71835e-07 45.1266 -8.30516e-07 47.75L-2.49155e-06 57.25C-2.95023e-06 59.8733 2.12664 62 4.75 62L14.25 62C16.8734 62 19 59.8734 19 57.25L19 47.75C19 45.1267 16.8734 43 14.25 43L4.75 43Z" fill="#00719C"/>
<path fill-rule="evenodd" clip-rule="evenodd" d="M36 45.375L26 45.375C24.6193 45.375 23.5 46.4383 23.5 47.75L23.5 57.25C23.5 58.5617 24.6193 59.625 26 59.625L36 59.625C37.3807 59.625 38.5 58.5617 38.5 57.25L38.5 47.75C38.5 46.4383 37.3807 45.375 36 45.375ZM26 43C23.2386 43 21 45.1266 21 47.75L21 57.25C21 59.8733 23.2386 62 26 62L36 62C38.7614 62 41 59.8734 41 57.25L41 47.75C41 45.1267 38.7614 43 36 43L26 43Z" fill="#00719C"/>
<path fill-rule="evenodd" clip-rule="evenodd" d="M57.25 45.375L47.75 45.375C46.4383 45.375 45.375 46.4383 45.375 47.75L45.375 57.25C45.375 58.5617 46.4383 59.625 47.75 59.625L57.25 59.625C58.5617 59.625 59.625 58.5617 59.625 57.25L59.625 47.75C59.625 46.4383 58.5617 45.375 57.25 45.375ZM47.75 43C45.1266 43 43 45.1266 43 47.75L43 57.25C43 59.8733 45.1266 62 47.75 62L57.25 62C59.8734 62 62 59.8734 62 57.25L62 47.75C62 45.1267 59.8734 43 57.25 43L47.75 43Z" fill="#00719C"/>
<path fill-rule="evenodd" clip-rule="evenodd" d="M53.8573 20.3811L53.8573 31.1711C53.8573 31.8332 53.3205 32.37 52.6584 32.37L41.8684 32.37C41.2063 32.37 40.6695 31.8332 40.6695 31.1711C40.6695 30.5089 41.2063 29.9722 41.8684 29.9722L49.764 29.9722L33.8273 14.0355C33.3591 13.5673 33.3591 12.8082 33.8273 12.34C34.2955 11.8718 35.0546 11.8718 35.5228 12.34L51.4595 28.2767L51.4595 20.3811C51.4595 19.719 51.9963 19.1822 52.6584 19.1822C53.3205 19.1822 53.8573 19.719 53.8573 20.3811Z" fill="white"/>
<path fill-rule="evenodd" clip-rule="evenodd" d="M20.2884 8.39225L31.0784 8.39225C31.7405 8.39225 32.2773 8.92901 32.2773 9.59114L32.2773 20.3811C32.2773 21.0433 31.7405 21.58 31.0784 21.58C30.4163 21.58 29.8795 21.0433 29.8795 20.3811L29.8795 12.4855L20.5367 21.8283C20.0685 22.2965 19.3094 22.2965 18.8412 21.8283C18.373 21.3601 18.373 20.601 18.8412 20.1328L28.184 10.79L20.2884 10.79C19.6263 10.79 19.0895 10.2533 19.0895 9.59114C19.0895 8.92901 19.6263 8.39225 20.2884 8.39225Z" fill="white"/>
<path fill-rule="evenodd" clip-rule="evenodd" d="M15.937 39.642L8.34922 31.8642C7.88359 31.3869 7.88359 30.6131 8.34922 30.1358L15.937 22.358C16.4026 21.8807 17.1576 21.8807 17.6232 22.358C18.0888 22.8353 18.0888 23.6091 17.6232 24.0864L12.0708 29.7778L37.8077 29.7778C38.4662 29.7778 39 30.325 39 31C39 31.675 38.4662 32.2222 37.8077 32.2222L12.0708 32.2222L17.6232 37.9136C18.0888 38.3909 18.0888 39.1647 17.6232 39.642C17.1576 40.1193 16.4026 40.1193 15.937 39.642Z" fill="white"/>
</svg>
