<svg width="63" height="62" viewBox="0 0 63 62" fill="none" xmlns="http://www.w3.org/2000/svg">
<path fill-rule="evenodd" clip-rule="evenodd" d="M48.75 2.375H58.25C59.5617 2.375 60.625 3.43832 60.625 4.75V14.25C60.625 15.5617 59.5617 16.625 58.25 16.625H48.75C47.4383 16.625 46.375 15.5617 46.375 14.25V4.75C46.375 3.43832 47.4383 2.375 48.75 2.375ZM58.25 0C60.8734 0 63 2.12665 63 4.75V14.25C63 16.8734 60.8734 19 58.25 19H48.75C46.1266 19 44 16.8734 44 14.25V4.75C44 2.12665 46.1266 0 48.75 0H58.25Z" fill="#00719C"/>
<path fill-rule="evenodd" clip-rule="evenodd" d="M27.75 2.375H37.25C38.5617 2.375 39.625 3.43832 39.625 4.75V14.25C39.625 15.5617 38.5617 16.625 37.25 16.625H27.75C26.4383 16.625 25.375 15.5617 25.375 14.25V4.75C25.375 3.43832 26.4383 2.375 27.75 2.375ZM37.25 0C39.8734 0 42 2.12665 42 4.75V14.25C42 16.8734 39.8734 19 37.25 19H27.75C25.1266 19 23 16.8734 23 14.25V4.75C23 2.12665 25.1266 0 27.75 0H37.25Z" fill="#00719C"/>
<path fill-rule="evenodd" clip-rule="evenodd" d="M5.75 2.375H15.25C16.5617 2.375 17.625 3.43832 17.625 4.75V14.25C17.625 15.5617 16.5617 16.625 15.25 16.625H5.75C4.43832 16.625 3.375 15.5617 3.375 14.25V4.75C3.375 3.43832 4.43832 2.375 5.75 2.375ZM15.25 0C17.8734 0 20 2.12665 20 4.75V14.25C20 16.8734 17.8734 19 15.25 19H5.75C3.12665 19 1 16.8734 1 14.25V4.75C1 2.12665 3.12665 0 5.75 0H15.25Z" fill="#00719C"/>
<path fill-rule="evenodd" clip-rule="evenodd" d="M48.75 24.375H58.25C59.5617 24.375 60.625 25.4383 60.625 26.75V36.25C60.625 37.5617 59.5617 38.625 58.25 38.625H48.75C47.4383 38.625 46.375 37.5617 46.375 36.25V26.75C46.375 25.4383 47.4383 24.375 48.75 24.375ZM58.25 22C60.8734 22 63 24.1266 63 26.75V36.25C63 38.8734 60.8734 41 58.25 41H48.75C46.1266 41 44 38.8734 44 36.25V26.75C44 24.1266 46.1266 22 48.75 22H58.25Z" fill="#00719C"/>
<path fill-rule="evenodd" clip-rule="evenodd" d="M27.75 24.375H37.25C38.5617 24.375 39.625 25.4383 39.625 26.75V36.25C39.625 37.5617 38.5617 38.625 37.25 38.625H27.75C26.4383 38.625 25.375 37.5617 25.375 36.25V26.75C25.375 25.4383 26.4383 24.375 27.75 24.375ZM37.25 22C39.8734 22 42 24.1266 42 26.75V36.25C42 38.8734 39.8734 41 37.25 41H27.75C25.1266 41 23 38.8734 23 36.25V26.75C23 24.1266 25.1266 22 27.75 22H37.25Z" fill="#00719C"/>
<path fill-rule="evenodd" clip-rule="evenodd" d="M5.75 24.375H15.25C16.5617 24.375 17.625 25.4383 17.625 26.75V36.25C17.625 37.5617 16.5617 38.625 15.25 38.625H5.75C4.43832 38.625 3.375 37.5617 3.375 36.25V26.75C3.375 25.4383 4.43832 24.375 5.75 24.375ZM15.25 22C17.8734 22 20 24.1266 20 26.75V36.25C20 38.8734 17.8734 41 15.25 41H5.75C3.12665 41 1 38.8734 1 36.25V26.75C1 24.1266 3.12665 22 5.75 22H15.25Z" fill="#00719C"/>
<path fill-rule="evenodd" clip-rule="evenodd" d="M48.75 45.375H58.25C59.5617 45.375 60.625 46.4383 60.625 47.75V57.25C60.625 58.5617 59.5617 59.625 58.25 59.625H48.75C47.4383 59.625 46.375 58.5617 46.375 57.25V47.75C46.375 46.4383 47.4383 45.375 48.75 45.375ZM58.25 43C60.8734 43 63 45.1266 63 47.75V57.25C63 59.8734 60.8734 62 58.25 62H48.75C46.1266 62 44 59.8734 44 57.25V47.75C44 45.1266 46.1266 43 48.75 43H58.25Z" fill="#00719C"/>
<path fill-rule="evenodd" clip-rule="evenodd" d="M27.75 45.375H37.25C38.5617 45.375 39.625 46.4383 39.625 47.75V57.25C39.625 58.5617 38.5617 59.625 37.25 59.625H27.75C26.4383 59.625 25.375 58.5617 25.375 57.25V47.75C25.375 46.4383 26.4383 45.375 27.75 45.375ZM37.25 43C39.8734 43 42 45.1266 42 47.75V57.25C42 59.8734 39.8734 62 37.25 62H27.75C25.1266 62 23 59.8734 23 57.25V47.75C23 45.1266 25.1266 43 27.75 43H37.25Z" fill="#00719C"/>
<path fill-rule="evenodd" clip-rule="evenodd" d="M5.75 45.375H15.25C16.5617 45.375 17.625 46.4383 17.625 47.75V57.25C17.625 58.5617 16.5617 59.625 15.25 59.625H5.75C4.43832 59.625 3.375 58.5617 3.375 57.25V47.75C3.375 46.4383 4.43832 45.375 5.75 45.375ZM15.25 43C17.8734 43 20 45.1266 20 47.75V57.25C20 59.8734 17.8734 62 15.25 62H5.75C3.12665 62 1 59.8734 1 57.25V47.75C1 45.1266 3.12665 43 5.75 43H15.25Z" fill="#00719C"/>
<path fill-rule="evenodd" clip-rule="evenodd" d="M9.8642 8.35456C9.38692 7.88182 8.61308 7.88182 8.1358 8.35456L0.357965 16.0583C-0.119322 16.531 -0.119322 17.2975 0.357965 17.7702C0.835251 18.243 1.60909 18.243 2.08637 17.7702L7.77783 12.133L7.77783 49.867L2.08637 44.2298C1.60909 43.757 0.835251 43.757 0.357965 44.2298C-0.119322 44.7025 -0.119322 45.469 0.357965 45.9417L8.1358 53.6454C8.61308 54.1182 9.38692 54.1182 9.8642 53.6454L17.642 45.9417C18.1193 45.469 18.1193 44.7025 17.642 44.2298C17.1647 43.757 16.3909 43.757 15.9136 44.2298L10.2222 49.867L10.2222 12.133L15.9136 17.7702C16.3909 18.243 17.1647 18.243 17.642 17.7702C18.1193 17.2975 18.1193 16.531 17.642 16.0583L9.8642 8.35456Z" fill="white"/>
<path fill-rule="evenodd" clip-rule="evenodd" d="M34.0005 54.0153C34.6627 54.0153 35.1994 53.4785 35.1994 52.8164L35.1994 42.0264C35.1994 41.3643 34.6627 40.8275 34.0005 40.8275C33.3384 40.8275 32.8016 41.3643 32.8016 42.0264V49.922L15.3149 32.4353L23.2105 32.4353C23.8727 32.4353 24.4094 31.8985 24.4094 31.2364C24.4094 30.5743 23.8727 30.0375 23.2105 30.0375L12.4206 30.0375C11.7584 30.0375 11.2217 30.5743 11.2217 31.2364L11.2217 42.0264C11.2217 42.6885 11.7584 43.2253 12.4206 43.2253C13.0827 43.2253 13.6194 42.6885 13.6194 42.0264L13.6194 34.1308L31.1062 51.6175L23.2105 51.6175C22.5484 51.6175 22.0117 52.1543 22.0117 52.8164C22.0117 53.4785 22.5484 54.0153 23.2105 54.0153L34.0005 54.0153Z" fill="white"/>
</svg>
