<svg width="62" height="62" viewBox="0 0 62 62" fill="none" xmlns="http://www.w3.org/2000/svg">
<path fill-rule="evenodd" clip-rule="evenodd" d="M47.75 2.375L57.25 2.375C58.5617 2.375 59.625 3.43832 59.625 4.75L59.625 14.25C59.625 15.5617 58.5617 16.625 57.25 16.625L47.75 16.625C46.4383 16.625 45.375 15.5617 45.375 14.25L45.375 4.75C45.375 3.43832 46.4383 2.375 47.75 2.375ZM57.25 -8.30516e-07C59.8734 -3.71835e-07 62 2.12665 62 4.75L62 14.25C62 16.8734 59.8733 19 57.25 19L47.75 19C45.1266 19 43 16.8734 43 14.25L43 4.75C43 2.12664 45.1267 -2.95023e-06 47.75 -2.49155e-06L57.25 -8.30516e-07Z" fill="#00719C"/>
<path fill-rule="evenodd" clip-rule="evenodd" d="M26.75 2.375L36.25 2.375C37.5617 2.375 38.625 3.43832 38.625 4.75L38.625 14.25C38.625 15.5617 37.5617 16.625 36.25 16.625L26.75 16.625C25.4383 16.625 24.375 15.5617 24.375 14.25L24.375 4.75C24.375 3.43832 25.4383 2.375 26.75 2.375ZM36.25 -8.30516e-07C38.8734 -3.71835e-07 41 2.12665 41 4.75L41 14.25C41 16.8734 38.8733 19 36.25 19L26.75 19C24.1266 19 22 16.8734 22 14.25L22 4.75C22 2.12664 24.1267 -2.95023e-06 26.75 -2.49155e-06L36.25 -8.30516e-07Z" fill="#00719C"/>
<path fill-rule="evenodd" clip-rule="evenodd" d="M4.75 2.375L14.25 2.375C15.5617 2.375 16.625 3.43832 16.625 4.75L16.625 14.25C16.625 15.5617 15.5617 16.625 14.25 16.625L4.75 16.625C3.43832 16.625 2.375 15.5617 2.375 14.25L2.375 4.75C2.375 3.43832 3.43833 2.375 4.75 2.375ZM14.25 -8.30516e-07C16.8734 -3.71835e-07 19 2.12665 19 4.75L19 14.25C19 16.8734 16.8733 19 14.25 19L4.75 19C2.12665 19 8.64466e-07 16.8734 1.32315e-06 14.25L2.98418e-06 4.75C3.44286e-06 2.12664 2.12665 -2.95023e-06 4.75 -2.49155e-06L14.25 -8.30516e-07Z" fill="#00719C"/>
<path fill-rule="evenodd" clip-rule="evenodd" d="M47.75 24.375L57.25 24.375C58.5617 24.375 59.625 25.4383 59.625 26.75L59.625 36.25C59.625 37.5617 58.5617 38.625 57.25 38.625L47.75 38.625C46.4383 38.625 45.375 37.5617 45.375 36.25L45.375 26.75C45.375 25.4383 46.4383 24.375 47.75 24.375ZM57.25 22C59.8734 22 62 24.1266 62 26.75L62 36.25C62 38.8734 59.8733 41 57.25 41L47.75 41C45.1266 41 43 38.8734 43 36.25L43 26.75C43 24.1266 45.1267 22 47.75 22L57.25 22Z" fill="#00719C"/>
<path fill-rule="evenodd" clip-rule="evenodd" d="M26.75 24.375L36.25 24.375C37.5617 24.375 38.625 25.4383 38.625 26.75L38.625 36.25C38.625 37.5617 37.5617 38.625 36.25 38.625L26.75 38.625C25.4383 38.625 24.375 37.5617 24.375 36.25L24.375 26.75C24.375 25.4383 25.4383 24.375 26.75 24.375ZM36.25 22C38.8734 22 41 24.1266 41 26.75L41 36.25C41 38.8734 38.8733 41 36.25 41L26.75 41C24.1266 41 22 38.8734 22 36.25L22 26.75C22 24.1266 24.1267 22 26.75 22L36.25 22Z" fill="#00719C"/>
<path fill-rule="evenodd" clip-rule="evenodd" d="M4.75 24.375L14.25 24.375C15.5617 24.375 16.625 25.4383 16.625 26.75L16.625 36.25C16.625 37.5617 15.5617 38.625 14.25 38.625L4.75 38.625C3.43832 38.625 2.375 37.5617 2.375 36.25L2.375 26.75C2.375 25.4383 3.43833 24.375 4.75 24.375ZM14.25 22C16.8734 22 19 24.1266 19 26.75L19 36.25C19 38.8734 16.8733 41 14.25 41L4.75 41C2.12665 41 8.64466e-07 38.8734 1.32315e-06 36.25L2.98418e-06 26.75C3.44286e-06 24.1266 2.12665 22 4.75 22L14.25 22Z" fill="#00719C"/>
<path fill-rule="evenodd" clip-rule="evenodd" d="M47.75 45.375L57.25 45.375C58.5617 45.375 59.625 46.4383 59.625 47.75L59.625 57.25C59.625 58.5617 58.5617 59.625 57.25 59.625L47.75 59.625C46.4383 59.625 45.375 58.5617 45.375 57.25L45.375 47.75C45.375 46.4383 46.4383 45.375 47.75 45.375ZM57.25 43C59.8734 43 62 45.1266 62 47.75L62 57.25C62 59.8734 59.8733 62 57.25 62L47.75 62C45.1266 62 43 59.8734 43 57.25L43 47.75C43 45.1266 45.1267 43 47.75 43L57.25 43Z" fill="#00719C"/>
<path fill-rule="evenodd" clip-rule="evenodd" d="M26.75 45.375L36.25 45.375C37.5617 45.375 38.625 46.4383 38.625 47.75L38.625 57.25C38.625 58.5617 37.5617 59.625 36.25 59.625L26.75 59.625C25.4383 59.625 24.375 58.5617 24.375 57.25L24.375 47.75C24.375 46.4383 25.4383 45.375 26.75 45.375ZM36.25 43C38.8734 43 41 45.1266 41 47.75L41 57.25C41 59.8734 38.8733 62 36.25 62L26.75 62C24.1266 62 22 59.8734 22 57.25L22 47.75C22 45.1266 24.1267 43 26.75 43L36.25 43Z" fill="#00719C"/>
<path fill-rule="evenodd" clip-rule="evenodd" d="M4.75 45.375L14.25 45.375C15.5617 45.375 16.625 46.4383 16.625 47.75L16.625 57.25C16.625 58.5617 15.5617 59.625 14.25 59.625L4.75 59.625C3.43832 59.625 2.375 58.5617 2.375 57.25L2.375 47.75C2.375 46.4383 3.43833 45.375 4.75 45.375ZM14.25 43C16.8734 43 19 45.1266 19 47.75L19 57.25C19 59.8734 16.8733 62 14.25 62L4.75 62C2.12665 62 8.64466e-07 59.8734 1.32315e-06 57.25L2.98418e-06 47.75C3.44286e-06 45.1266 2.12665 43 4.75 43L14.25 43Z" fill="#00719C"/>
<path fill-rule="evenodd" clip-rule="evenodd" d="M8.4233 20.3811L8.4233 31.1711C8.4233 31.8332 8.96006 32.37 9.62219 32.37L20.4122 32.37C21.0743 32.37 21.6111 31.8332 21.6111 31.1711C21.6111 30.5089 21.0743 29.9722 20.4122 29.9722L12.5166 29.9722L28.4532 14.0355C28.9214 13.5673 28.9214 12.8082 28.4532 12.34C27.985 11.8718 27.226 11.8718 26.7578 12.34L10.8211 28.2767L10.8211 20.3811C10.8211 19.719 10.2843 19.1822 9.62219 19.1822C8.96006 19.1822 8.4233 19.719 8.4233 20.3811Z" fill="white"/>
<path fill-rule="evenodd" clip-rule="evenodd" d="M41.9921 8.39225L31.2022 8.39224C30.54 8.39224 30.0033 8.929 30.0033 9.59113L30.0033 20.3811C30.0033 21.0432 30.54 21.58 31.2022 21.58C31.8643 21.58 32.401 21.0432 32.401 20.3811L32.401 12.4855L41.7438 21.8283C42.212 22.2965 42.9711 22.2965 43.4393 21.8283C43.9075 21.3601 43.9075 20.601 43.4393 20.1328L34.0965 10.79L41.9921 10.79C42.6543 10.79 43.191 10.2533 43.191 9.59113C43.191 8.92901 42.6543 8.39225 41.9921 8.39225Z" fill="white"/>
<path fill-rule="evenodd" clip-rule="evenodd" d="M46.063 39.642L53.6508 31.8642C54.1164 31.3869 54.1164 30.6131 53.6508 30.1358L46.063 22.358C45.5974 21.8807 44.8424 21.8807 44.3768 22.358C43.9112 22.8353 43.9112 23.6091 44.3768 24.0864L49.9292 29.7778L24.1923 29.7778C23.5338 29.7778 23 30.325 23 31C23 31.675 23.5338 32.2222 24.1923 32.2222L49.9292 32.2222L44.3768 37.9136C43.9112 38.3909 43.9112 39.1648 44.3768 39.642C44.8424 40.1193 45.5974 40.1193 46.063 39.642Z" fill="white"/>
</svg>
