<svg width="63" height="63" viewBox="0 0 63 63" fill="none" xmlns="http://www.w3.org/2000/svg">
<path fill-rule="evenodd" clip-rule="evenodd" d="M3.375 47.75L3.375 57.25C3.375 58.5617 4.43832 59.625 5.75 59.625L15.25 59.625C16.5617 59.625 17.625 58.5617 17.625 57.25L17.625 47.75C17.625 46.4383 16.5617 45.375 15.25 45.375L5.75 45.375C4.43833 45.375 3.375 46.4383 3.375 47.75ZM1 57.25C1 59.8734 3.12665 62 5.75 62L15.25 62C17.8734 62 20 59.8734 20 57.25L20 47.75C20 45.1266 17.8734 43 15.25 43L5.75 43C3.12665 43 1 45.1266 1 47.75L1 57.25Z" fill="#00719C"/>
<path fill-rule="evenodd" clip-rule="evenodd" d="M3.375 25.75L3.375 35.25C3.375 36.5617 4.43832 37.625 5.75 37.625L15.25 37.625C16.5617 37.625 17.625 36.5617 17.625 35.25L17.625 25.75C17.625 24.4383 16.5617 23.375 15.25 23.375L5.75 23.375C4.43833 23.375 3.375 24.4383 3.375 25.75ZM1 35.25C1 37.8734 3.12665 40 5.75 40L15.25 40C17.8734 40 20 37.8734 20 35.25L20 25.75C20 23.1266 17.8734 21 15.25 21L5.75 21C3.12665 21 1 23.1266 1 25.75L1 35.25Z" fill="#00719C"/>
<path fill-rule="evenodd" clip-rule="evenodd" d="M3.375 4.75L3.375 14.25C3.375 15.5617 4.43832 16.625 5.75 16.625L15.25 16.625C16.5617 16.625 17.625 15.5617 17.625 14.25L17.625 4.75C17.625 3.43832 16.5617 2.375 15.25 2.375L5.75 2.375C4.43833 2.375 3.375 3.43832 3.375 4.75ZM1 14.25C1 16.8734 3.12665 19 5.75 19L15.25 19C17.8734 19 20 16.8734 20 14.25L20 4.75C20 2.12665 17.8734 3.05324e-07 15.25 -3.86871e-08L5.75 -1.28446e-06C3.12665 -1.62847e-06 1 2.12665 1 4.75L1 14.25Z" fill="#00719C"/>
<path fill-rule="evenodd" clip-rule="evenodd" d="M25.375 47.75L25.375 57.25C25.375 58.5617 26.4383 59.625 27.75 59.625L37.25 59.625C38.5617 59.625 39.625 58.5617 39.625 57.25L39.625 47.75C39.625 46.4383 38.5617 45.375 37.25 45.375L27.75 45.375C26.4383 45.375 25.375 46.4383 25.375 47.75ZM23 57.25C23 59.8734 25.1266 62 27.75 62L37.25 62C39.8734 62 42 59.8734 42 57.25L42 47.75C42 45.1266 39.8734 43 37.25 43L27.75 43C25.1266 43 23 45.1266 23 47.75L23 57.25Z" fill="#00719C"/>
<path fill-rule="evenodd" clip-rule="evenodd" d="M25.375 25.75L25.375 35.25C25.375 36.5617 26.4383 37.625 27.75 37.625L37.25 37.625C38.5617 37.625 39.625 36.5617 39.625 35.25L39.625 25.75C39.625 24.4383 38.5617 23.375 37.25 23.375L27.75 23.375C26.4383 23.375 25.375 24.4383 25.375 25.75ZM23 35.25C23 37.8734 25.1266 40 27.75 40L37.25 40C39.8734 40 42 37.8734 42 35.25L42 25.75C42 23.1266 39.8734 21 37.25 21L27.75 21C25.1266 21 23 23.1266 23 25.75L23 35.25Z" fill="#00719C"/>
<path fill-rule="evenodd" clip-rule="evenodd" d="M25.375 4.75L25.375 14.25C25.375 15.5617 26.4383 16.625 27.75 16.625L37.25 16.625C38.5617 16.625 39.625 15.5617 39.625 14.25L39.625 4.75C39.625 3.43832 38.5617 2.375 37.25 2.375L27.75 2.375C26.4383 2.375 25.375 3.43832 25.375 4.75ZM23 14.25C23 16.8734 25.1266 19 27.75 19L37.25 19C39.8734 19 42 16.8734 42 14.25L42 4.75C42 2.12665 39.8734 3.05324e-07 37.25 -3.86871e-08L27.75 -1.28446e-06C25.1266 -1.62847e-06 23 2.12665 23 4.75L23 14.25Z" fill="#00719C"/>
<path fill-rule="evenodd" clip-rule="evenodd" d="M46.375 47.75L46.375 57.25C46.375 58.5617 47.4383 59.625 48.75 59.625L58.25 59.625C59.5617 59.625 60.625 58.5617 60.625 57.25L60.625 47.75C60.625 46.4383 59.5617 45.375 58.25 45.375L48.75 45.375C47.4383 45.375 46.375 46.4383 46.375 47.75ZM44 57.25C44 59.8734 46.1266 62 48.75 62L58.25 62C60.8734 62 63 59.8734 63 57.25L63 47.75C63 45.1266 60.8734 43 58.25 43L48.75 43C46.1266 43 44 45.1266 44 47.75L44 57.25Z" fill="#00719C"/>
<path fill-rule="evenodd" clip-rule="evenodd" d="M46.375 25.75L46.375 35.25C46.375 36.5617 47.4383 37.625 48.75 37.625L58.25 37.625C59.5617 37.625 60.625 36.5617 60.625 35.25L60.625 25.75C60.625 24.4383 59.5617 23.375 58.25 23.375L48.75 23.375C47.4383 23.375 46.375 24.4383 46.375 25.75ZM44 35.25C44 37.8734 46.1266 40 48.75 40L58.25 40C60.8734 40 63 37.8734 63 35.25L63 25.75C63 23.1266 60.8734 21 58.25 21L48.75 21C46.1266 21 44 23.1266 44 25.75L44 35.25Z" fill="#00719C"/>
<path fill-rule="evenodd" clip-rule="evenodd" d="M46.375 4.75L46.375 14.25C46.375 15.5617 47.4383 16.625 48.75 16.625L58.25 16.625C59.5617 16.625 60.625 15.5617 60.625 14.25L60.625 4.75C60.625 3.43832 59.5617 2.375 58.25 2.375L48.75 2.375C47.4383 2.375 46.375 3.43832 46.375 4.75ZM44 14.25C44 16.8734 46.1266 19 48.75 19L58.25 19C60.8734 19 63 16.8734 63 14.25L63 4.75C63 2.12665 60.8734 3.05324e-07 58.25 -3.86871e-08L48.75 -1.28446e-06C46.1266 -1.62847e-06 44 2.12665 44 4.75L44 14.25Z" fill="#00719C"/>
<path fill-rule="evenodd" clip-rule="evenodd" d="M23.2105 6.32126L34.0005 6.32126C34.6626 6.32126 35.1994 6.85802 35.1994 7.52014L35.1994 18.3101C35.1994 18.9723 34.6626 19.509 34.0005 19.509C33.3384 19.509 32.8016 18.9723 32.8016 18.3101L32.8016 10.4145L16.8649 26.3512C16.3967 26.8194 15.6376 26.8194 15.1694 26.3512C14.7012 25.883 14.7012 25.1239 15.1694 24.6557L31.1061 8.71903L23.2105 8.71903C22.5484 8.71903 22.0116 8.18227 22.0116 7.52014C22.0116 6.85802 22.5484 6.32126 23.2105 6.32126Z" fill="white" fill-opacity="0.64"/>
<path fill-rule="evenodd" clip-rule="evenodd" d="M11.2217 39.8902L11.2217 29.1002C11.2217 28.438 11.7584 27.9013 12.4205 27.9013L23.2105 27.9013C23.8727 27.9013 24.4094 28.438 24.4094 29.1002C24.4094 29.7623 23.8727 30.2991 23.2105 30.2991L15.3149 30.2991L24.6577 39.6419C25.1259 40.1101 25.1259 40.8691 24.6577 41.3373C24.1895 41.8055 23.4304 41.8055 22.9622 41.3373L13.6194 31.9945L13.6194 39.8902C13.6194 40.5523 13.0827 41.089 12.4205 41.089C11.7584 41.089 11.2217 40.5523 11.2217 39.8902Z" fill="white" fill-opacity="0.64"/>
<path fill-rule="evenodd" clip-rule="evenodd" d="M42.642 44.063L34.8642 51.6508C34.3869 52.1164 33.6131 52.1164 33.1358 51.6508L25.358 44.063C24.8807 43.5974 24.8807 42.8424 25.358 42.3768C25.8353 41.9112 26.6091 41.9112 27.0864 42.3768L32.7778 47.9292L32.7778 22.1923C32.7778 21.5338 33.325 21 34 21C34.675 21 35.2222 21.5338 35.2222 22.1923L35.2222 47.9292L40.9136 42.3768C41.3909 41.9112 42.1647 41.9112 42.642 42.3768C43.1193 42.8424 43.1193 43.5974 42.642 44.063Z" fill="white" fill-opacity="0.64"/>
<path fill-rule="evenodd" clip-rule="evenodd" d="M0.357964 47.063L8.1358 54.6508C8.61308 55.1164 9.38692 55.1164 9.8642 54.6508L17.642 47.063C18.1193 46.5974 18.1193 45.8424 17.642 45.3768C17.1648 44.9112 16.3909 44.9112 15.9136 45.3768L10.2222 50.9292L10.2222 25.1923C10.2222 24.5338 9.67499 24 9 24C8.32502 24 7.77783 24.5338 7.77783 25.1923L7.77783 50.9292L2.08637 45.3768C1.60908 44.9112 0.835251 44.9112 0.357964 45.3768C-0.119323 45.8424 -0.119323 46.5974 0.357964 47.063Z" fill="white"/>
<path fill-rule="evenodd" clip-rule="evenodd" d="M44.9726 62.642L52.6468 54.8642C53.1177 54.3869 53.1177 53.6131 52.6468 53.1358L44.9726 45.358C44.5017 44.8807 43.7382 44.8807 43.2672 45.358C42.7963 45.8353 42.7963 46.6091 43.2672 47.0864L48.8829 52.7778L13.2059 52.7778C12.5399 52.7778 12 53.325 12 54C12 54.675 12.5399 55.2222 13.2059 55.2222L48.8829 55.2222L43.2672 60.9136C42.7963 61.3909 42.7963 62.1647 43.2672 62.642C43.7382 63.1193 44.5017 63.1193 44.9726 62.642Z" fill="white"/>
<path fill-rule="evenodd" clip-rule="evenodd" d="M19.6138 9.91793L8.82385 9.91793C8.16172 9.91793 7.62496 10.4547 7.62496 11.1168L7.62496 21.9068C7.62496 22.5689 8.16172 23.1057 8.82385 23.1057C9.48598 23.1057 10.0227 22.5689 10.0227 21.9068L10.0227 14.0112L40.9455 44.934C41.4137 45.4022 42.1728 45.4022 42.641 44.934C43.1092 44.4658 43.1092 43.7067 42.641 43.2385L11.7182 12.3157L19.6138 12.3157C20.276 12.3157 20.8127 11.7789 20.8127 11.1168C20.8127 10.4547 20.276 9.91793 19.6138 9.91793Z" fill="white"/>
</svg>
