<svg width="62" height="62" viewBox="0 0 62 62" fill="none" xmlns="http://www.w3.org/2000/svg">
<path fill-rule="evenodd" clip-rule="evenodd" d="M14.25 2.375H4.75C3.43832 2.375 2.375 3.43832 2.375 4.75V14.25C2.375 15.5617 3.43832 16.625 4.75 16.625H14.25C15.5617 16.625 16.625 15.5617 16.625 14.25V4.75C16.625 3.43832 15.5617 2.375 14.25 2.375ZM4.75 0C2.12665 0 0 2.12665 0 4.75V14.25C0 16.8734 2.12665 19 4.75 19H14.25C16.8734 19 19 16.8734 19 14.25V4.75C19 2.12665 16.8734 0 14.25 0H4.75Z" fill="#00719C"/>
<path fill-rule="evenodd" clip-rule="evenodd" d="M36.25 2.375H26.75C25.4383 2.375 24.375 3.43832 24.375 4.75V14.25C24.375 15.5617 25.4383 16.625 26.75 16.625H36.25C37.5617 16.625 38.625 15.5617 38.625 14.25V4.75C38.625 3.43832 37.5617 2.375 36.25 2.375ZM26.75 0C24.1266 0 22 2.12665 22 4.75V14.25C22 16.8734 24.1266 19 26.75 19H36.25C38.8734 19 41 16.8734 41 14.25V4.75C41 2.12665 38.8734 0 36.25 0H26.75Z" fill="#00719C"/>
<path fill-rule="evenodd" clip-rule="evenodd" d="M57.25 2.375H47.75C46.4383 2.375 45.375 3.43832 45.375 4.75V14.25C45.375 15.5617 46.4383 16.625 47.75 16.625H57.25C58.5617 16.625 59.625 15.5617 59.625 14.25V4.75C59.625 3.43832 58.5617 2.375 57.25 2.375ZM47.75 0C45.1266 0 43 2.12665 43 4.75V14.25C43 16.8734 45.1266 19 47.75 19H57.25C59.8734 19 62 16.8734 62 14.25V4.75C62 2.12665 59.8734 0 57.25 0H47.75Z" fill="#00719C"/>
<path fill-rule="evenodd" clip-rule="evenodd" d="M14.25 24.375H4.75C3.43832 24.375 2.375 25.4383 2.375 26.75V36.25C2.375 37.5617 3.43832 38.625 4.75 38.625H14.25C15.5617 38.625 16.625 37.5617 16.625 36.25V26.75C16.625 25.4383 15.5617 24.375 14.25 24.375ZM4.75 22C2.12665 22 0 24.1266 0 26.75V36.25C0 38.8734 2.12665 41 4.75 41H14.25C16.8734 41 19 38.8734 19 36.25V26.75C19 24.1266 16.8734 22 14.25 22H4.75Z" fill="#00719C"/>
<path fill-rule="evenodd" clip-rule="evenodd" d="M36.25 24.375H26.75C25.4383 24.375 24.375 25.4383 24.375 26.75V36.25C24.375 37.5617 25.4383 38.625 26.75 38.625H36.25C37.5617 38.625 38.625 37.5617 38.625 36.25V26.75C38.625 25.4383 37.5617 24.375 36.25 24.375ZM26.75 22C24.1266 22 22 24.1266 22 26.75V36.25C22 38.8734 24.1266 41 26.75 41H36.25C38.8734 41 41 38.8734 41 36.25V26.75C41 24.1266 38.8734 22 36.25 22H26.75Z" fill="#00719C"/>
<path fill-rule="evenodd" clip-rule="evenodd" d="M57.25 24.375H47.75C46.4383 24.375 45.375 25.4383 45.375 26.75V36.25C45.375 37.5617 46.4383 38.625 47.75 38.625H57.25C58.5617 38.625 59.625 37.5617 59.625 36.25V26.75C59.625 25.4383 58.5617 24.375 57.25 24.375ZM47.75 22C45.1266 22 43 24.1266 43 26.75V36.25C43 38.8734 45.1266 41 47.75 41H57.25C59.8734 41 62 38.8734 62 36.25V26.75C62 24.1266 59.8734 22 57.25 22H47.75Z" fill="#00719C"/>
<path fill-rule="evenodd" clip-rule="evenodd" d="M14.25 45.375H4.75C3.43832 45.375 2.375 46.4383 2.375 47.75V57.25C2.375 58.5617 3.43832 59.625 4.75 59.625H14.25C15.5617 59.625 16.625 58.5617 16.625 57.25V47.75C16.625 46.4383 15.5617 45.375 14.25 45.375ZM4.75 43C2.12665 43 0 45.1266 0 47.75V57.25C0 59.8734 2.12665 62 4.75 62H14.25C16.8734 62 19 59.8734 19 57.25V47.75C19 45.1266 16.8734 43 14.25 43H4.75Z" fill="#00719C"/>
<path fill-rule="evenodd" clip-rule="evenodd" d="M36.25 45.375H26.75C25.4383 45.375 24.375 46.4383 24.375 47.75V57.25C24.375 58.5617 25.4383 59.625 26.75 59.625H36.25C37.5617 59.625 38.625 58.5617 38.625 57.25V47.75C38.625 46.4383 37.5617 45.375 36.25 45.375ZM26.75 43C24.1266 43 22 45.1266 22 47.75V57.25C22 59.8734 24.1266 62 26.75 62H36.25C38.8734 62 41 59.8734 41 57.25V47.75C41 45.1266 38.8734 43 36.25 43H26.75Z" fill="#00719C"/>
<path fill-rule="evenodd" clip-rule="evenodd" d="M57.25 45.375H47.75C46.4383 45.375 45.375 46.4383 45.375 47.75V57.25C45.375 58.5617 46.4383 59.625 47.75 59.625H57.25C58.5617 59.625 59.625 58.5617 59.625 57.25V47.75C59.625 46.4383 58.5617 45.375 57.25 45.375ZM47.75 43C45.1266 43 43 45.1266 43 47.75V57.25C43 59.8734 45.1266 62 47.75 62H57.25C59.8734 62 62 59.8734 62 57.25V47.75C62 45.1266 59.8734 43 57.25 43H47.75Z" fill="#00719C"/>
<path fill-rule="evenodd" clip-rule="evenodd" d="M9.67641 8.45757C9.01429 8.45757 8.47753 8.99433 8.47753 9.65646L8.47753 20.4464C8.47753 21.1086 9.01429 21.6453 9.67641 21.6453C10.3385 21.6453 10.8753 21.1086 10.8753 20.4464V12.5508L49.942 51.6175L42.0464 51.6175C41.3842 51.6175 40.8475 52.1543 40.8475 52.8164C40.8475 53.4785 41.3842 54.0153 42.0464 54.0153L52.8364 54.0153C53.4985 54.0153 54.0352 53.4785 54.0352 52.8164L54.0352 42.0264C54.0352 41.3643 53.4985 40.8275 52.8364 40.8275C52.1742 40.8275 51.6375 41.3643 51.6375 42.0264V49.922L12.5708 10.8553L20.4664 10.8553C21.1285 10.8553 21.6653 10.3186 21.6653 9.65646C21.6653 8.99433 21.1285 8.45757 20.4664 8.45757L9.67641 8.45757Z" fill="white"/>
<path fill-rule="evenodd" clip-rule="evenodd" d="M53.6454 31.8642C54.1182 31.3869 54.1182 30.6131 53.6454 30.1358L45.9417 22.358C45.469 21.8807 44.7025 21.8807 44.2298 22.358C43.757 22.8353 43.757 23.6091 44.2298 24.0864L49.867 29.7778H12.133L17.7702 24.0864C18.243 23.6091 18.243 22.8353 17.7702 22.358C17.2975 21.8807 16.531 21.8807 16.0583 22.358L8.35455 30.1358C7.88182 30.6131 7.88182 31.3869 8.35455 31.8642L16.0583 39.642C16.531 40.1193 17.2975 40.1193 17.7702 39.642C18.243 39.1647 18.243 38.3909 17.7702 37.9136L12.133 32.2222H49.867L44.2298 37.9136C43.757 38.3909 43.757 39.1647 44.2298 39.642C44.7025 40.1193 45.469 40.1193 45.9417 39.642L53.6454 31.8642Z" fill="white"/>
</svg>
