<svg width="62" height="62" viewBox="0 0 62 62" fill="none" xmlns="http://www.w3.org/2000/svg">
<path fill-rule="evenodd" clip-rule="evenodd" d="M2.375 14.25L2.375 4.75C2.375 3.43832 3.43832 2.375 4.75 2.375L14.25 2.375C15.5617 2.375 16.625 3.43832 16.625 4.75L16.625 14.25C16.625 15.5617 15.5617 16.625 14.25 16.625L4.75 16.625C3.43832 16.625 2.375 15.5617 2.375 14.25ZM2.07629e-07 4.75C9.29587e-08 2.12665 2.12665 -9.29587e-08 4.75 -2.07629e-07L14.25 -6.22887e-07C16.8734 -7.37558e-07 19 2.12665 19 4.75L19 14.25C19 16.8734 16.8734 19 14.25 19L4.75 19C2.12665 19 7.37558e-07 16.8734 6.22887e-07 14.25L2.07629e-07 4.75Z" fill="#00719C"/>
<path fill-rule="evenodd" clip-rule="evenodd" d="M2.375 36.25L2.375 26.75C2.375 25.4383 3.43832 24.375 4.75 24.375L14.25 24.375C15.5617 24.375 16.625 25.4383 16.625 26.75L16.625 36.25C16.625 37.5617 15.5617 38.625 14.25 38.625L4.75 38.625C3.43832 38.625 2.375 37.5617 2.375 36.25ZM2.07629e-07 26.75C9.29587e-08 24.1266 2.12665 22 4.75 22L14.25 22C16.8734 22 19 24.1266 19 26.75L19 36.25C19 38.8734 16.8734 41 14.25 41L4.75 41C2.12665 41 7.37558e-07 38.8734 6.22887e-07 36.25L2.07629e-07 26.75Z" fill="#00719C"/>
<path fill-rule="evenodd" clip-rule="evenodd" d="M2.375 57.25L2.375 47.75C2.375 46.4383 3.43832 45.375 4.75 45.375L14.25 45.375C15.5617 45.375 16.625 46.4383 16.625 47.75L16.625 57.25C16.625 58.5617 15.5617 59.625 14.25 59.625L4.75 59.625C3.43832 59.625 2.375 58.5617 2.375 57.25ZM2.07629e-07 47.75C9.29587e-08 45.1266 2.12665 43 4.75 43L14.25 43C16.8734 43 19 45.1266 19 47.75L19 57.25C19 59.8734 16.8734 62 14.25 62L4.75 62C2.12665 62 7.37558e-07 59.8734 6.22887e-07 57.25L2.07629e-07 47.75Z" fill="#00719C"/>
<path fill-rule="evenodd" clip-rule="evenodd" d="M23.5 14.25L23.5 4.75C23.5 3.43832 24.6193 2.375 26 2.375L36 2.375C37.3807 2.375 38.5 3.43832 38.5 4.75L38.5 14.25C38.5 15.5617 37.3807 16.625 36 16.625L26 16.625C24.6193 16.625 23.5 15.5617 23.5 14.25ZM21 4.75C21 2.12665 23.2386 -9.78513e-08 26 -2.18557e-07L36 -6.55671e-07C38.7614 -7.76376e-07 41 2.12665 41 4.75L41 14.25C41 16.8734 38.7614 19 36 19L26 19C23.2386 19 21 16.8734 21 14.25L21 4.75Z" fill="#00719C"/>
<path fill-rule="evenodd" clip-rule="evenodd" d="M23.5 36.25L23.5 26.75C23.5 25.4383 24.6193 24.375 26 24.375L36 24.375C37.3807 24.375 38.5 25.4383 38.5 26.75L38.5 36.25C38.5 37.5617 37.3807 38.625 36 38.625L26 38.625C24.6193 38.625 23.5 37.5617 23.5 36.25ZM21 26.75C21 24.1266 23.2386 22 26 22L36 22C38.7614 22 41 24.1266 41 26.75L41 36.25C41 38.8734 38.7614 41 36 41L26 41C23.2386 41 21 38.8734 21 36.25L21 26.75Z" fill="#00719C"/>
<path fill-rule="evenodd" clip-rule="evenodd" d="M23.5 57.25L23.5 47.75C23.5 46.4383 24.6193 45.375 26 45.375L36 45.375C37.3807 45.375 38.5 46.4383 38.5 47.75L38.5 57.25C38.5 58.5617 37.3807 59.625 36 59.625L26 59.625C24.6193 59.625 23.5 58.5617 23.5 57.25ZM21 47.75C21 45.1266 23.2386 43 26 43L36 43C38.7614 43 41 45.1266 41 47.75L41 57.25C41 59.8734 38.7614 62 36 62L26 62C23.2386 62 21 59.8734 21 57.25L21 47.75Z" fill="#00719C"/>
<path fill-rule="evenodd" clip-rule="evenodd" d="M45.375 14.25L45.375 4.75C45.375 3.43832 46.4383 2.375 47.75 2.375L57.25 2.375C58.5617 2.375 59.625 3.43832 59.625 4.75L59.625 14.25C59.625 15.5617 58.5617 16.625 57.25 16.625L47.75 16.625C46.4383 16.625 45.375 15.5617 45.375 14.25ZM43 4.75C43 2.12665 45.1266 -9.29587e-08 47.75 -2.07629e-07L57.25 -6.22887e-07C59.8734 -7.37558e-07 62 2.12665 62 4.75L62 14.25C62 16.8734 59.8734 19 57.25 19L47.75 19C45.1266 19 43 16.8734 43 14.25L43 4.75Z" fill="#00719C"/>
<path fill-rule="evenodd" clip-rule="evenodd" d="M45.375 36.25L45.375 26.75C45.375 25.4383 46.4383 24.375 47.75 24.375L57.25 24.375C58.5617 24.375 59.625 25.4383 59.625 26.75L59.625 36.25C59.625 37.5617 58.5617 38.625 57.25 38.625L47.75 38.625C46.4383 38.625 45.375 37.5617 45.375 36.25ZM43 26.75C43 24.1266 45.1266 22 47.75 22L57.25 22C59.8734 22 62 24.1266 62 26.75L62 36.25C62 38.8734 59.8734 41 57.25 41L47.75 41C45.1266 41 43 38.8734 43 36.25L43 26.75Z" fill="#00719C"/>
<path fill-rule="evenodd" clip-rule="evenodd" d="M45.375 57.25L45.375 47.75C45.375 46.4383 46.4383 45.375 47.75 45.375L57.25 45.375C58.5617 45.375 59.625 46.4383 59.625 47.75L59.625 57.25C59.625 58.5617 58.5617 59.625 57.25 59.625L47.75 59.625C46.4383 59.625 45.375 58.5617 45.375 57.25ZM43 47.75C43 45.1266 45.1266 43 47.75 43L57.25 43C59.8734 43 62 45.1266 62 47.75L62 57.25C62 59.8734 59.8734 62 57.25 62L47.75 62C45.1266 62 43 59.8734 43 57.25L43 47.75Z" fill="#00719C"/>
<path fill-rule="evenodd" clip-rule="evenodd" d="M9.47756 32.3699C8.81543 32.3699 8.27867 31.8332 8.27867 31.1711L8.27867 20.3811C8.27867 19.7189 8.81543 19.1822 9.47756 19.1822C10.1397 19.1822 10.6764 19.7189 10.6764 20.3811L10.6764 28.2767L28.1632 10.79L20.2675 10.79C19.6054 10.79 19.0687 10.2532 19.0687 9.59108C19.0687 8.92895 19.6054 8.39219 20.2675 8.39219L31.0575 8.39219C31.7197 8.39219 32.2564 8.92895 32.2564 9.59108L32.2564 20.3811C32.2564 21.0432 31.7197 21.58 31.0575 21.58C30.3954 21.58 29.8586 21.0432 29.8586 20.3811L29.8586 12.4855L12.3719 29.9722L20.2675 29.9722C20.9297 29.9722 21.4664 30.5089 21.4664 31.1711C21.4664 31.8332 20.9297 32.3699 20.2675 32.3699L9.47756 32.3699Z" fill="white"/>
<path fill-rule="evenodd" clip-rule="evenodd" d="M31.0575 53.95C30.3954 53.95 29.8586 53.4132 29.8586 52.7511L29.8586 41.9611C29.8586 41.299 30.3954 40.7622 31.0575 40.7622C31.7196 40.7622 32.2564 41.299 32.2564 41.9611L32.2564 49.8567L49.7431 32.37L41.8475 32.37C41.1854 32.37 40.6486 31.8332 40.6486 31.1711C40.6486 30.509 41.1854 29.9722 41.8475 29.9722L52.6375 29.9722C53.2996 29.9722 53.8364 30.509 53.8364 31.1711L53.8364 41.9611C53.8364 42.6232 53.2996 43.16 52.6375 43.16C51.9754 43.16 51.4386 42.6232 51.4386 41.9611L51.4386 34.0655L33.9519 51.5522L41.8475 51.5522C42.5096 51.5522 43.0464 52.0889 43.0464 52.7511C43.0464 53.4132 42.5096 53.95 41.8475 53.95L31.0575 53.95Z" fill="white"/>
</svg>
