<svg width="64" height="63" viewBox="0 0 64 63" fill="none" xmlns="http://www.w3.org/2000/svg">
<path fill-rule="evenodd" clip-rule="evenodd" d="M14.25 60.625L4.75 60.625C3.43832 60.625 2.375 59.5617 2.375 58.25L2.375 48.75C2.375 47.4383 3.43832 46.375 4.75 46.375L14.25 46.375C15.5617 46.375 16.625 47.4383 16.625 48.75L16.625 58.25C16.625 59.5617 15.5617 60.625 14.25 60.625ZM4.75 63C2.12665 63 -1.85917e-07 60.8734 -4.15258e-07 58.25L-1.24577e-06 48.75C-1.47512e-06 46.1266 2.12665 44 4.75 44L14.25 44C16.8734 44 19 46.1266 19 48.75L19 58.25C19 60.8734 16.8734 63 14.25 63L4.75 63Z" fill="#00719C"/>
<path fill-rule="evenodd" clip-rule="evenodd" d="M36.25 60.625L26.75 60.625C25.4383 60.625 24.375 59.5617 24.375 58.25L24.375 48.75C24.375 47.4383 25.4383 46.375 26.75 46.375L36.25 46.375C37.5617 46.375 38.625 47.4383 38.625 48.75L38.625 58.25C38.625 59.5617 37.5617 60.625 36.25 60.625ZM26.75 63C24.1266 63 22 60.8734 22 58.25L22 48.75C22 46.1266 24.1266 44 26.75 44L36.25 44C38.8734 44 41 46.1266 41 48.75L41 58.25C41 60.8734 38.8734 63 36.25 63L26.75 63Z" fill="#00719C"/>
<path fill-rule="evenodd" clip-rule="evenodd" d="M58 60.625L48 60.625C46.6193 60.625 45.5 59.5617 45.5 58.25L45.5 48.75C45.5 47.4383 46.6193 46.375 48 46.375L58 46.375C59.3807 46.375 60.5 47.4383 60.5 48.75L60.5 58.25C60.5 59.5617 59.3807 60.625 58 60.625ZM48 63C45.2386 63 43 60.8734 43 58.25L43 48.75C43 46.1266 45.2386 44 48 44L58 44C60.7614 44 63 46.1266 63 48.75L63 58.25C63 60.8734 60.7614 63 58 63L48 63Z" fill="#00719C"/>
<path fill-rule="evenodd" clip-rule="evenodd" d="M14.25 38.625L4.75 38.625C3.43832 38.625 2.375 37.5617 2.375 36.25L2.375 26.75C2.375 25.4383 3.43832 24.375 4.75 24.375L14.25 24.375C15.5617 24.375 16.625 25.4383 16.625 26.75L16.625 36.25C16.625 37.5617 15.5617 38.625 14.25 38.625ZM4.75 41C2.12665 41 -1.85917e-07 38.8734 -4.15258e-07 36.25L-1.24577e-06 26.75C-1.47512e-06 24.1266 2.12665 22 4.75 22L14.25 22C16.8734 22 19 24.1266 19 26.75L19 36.25C19 38.8734 16.8734 41 14.25 41L4.75 41Z" fill="#00719C"/>
<path fill-rule="evenodd" clip-rule="evenodd" d="M36.25 38.625L26.75 38.625C25.4383 38.625 24.375 37.5617 24.375 36.25L24.375 26.75C24.375 25.4383 25.4383 24.375 26.75 24.375L36.25 24.375C37.5617 24.375 38.625 25.4383 38.625 26.75L38.625 36.25C38.625 37.5617 37.5617 38.625 36.25 38.625ZM26.75 41C24.1266 41 22 38.8734 22 36.25L22 26.75C22 24.1266 24.1266 22 26.75 22L36.25 22C38.8734 22 41 24.1266 41 26.75L41 36.25C41 38.8734 38.8734 41 36.25 41L26.75 41Z" fill="#00719C"/>
<path fill-rule="evenodd" clip-rule="evenodd" d="M58 38.625L48 38.625C46.6193 38.625 45.5 37.5617 45.5 36.25L45.5 26.75C45.5 25.4383 46.6193 24.375 48 24.375L58 24.375C59.3807 24.375 60.5 25.4383 60.5 26.75L60.5 36.25C60.5 37.5617 59.3807 38.625 58 38.625ZM48 41C45.2386 41 43 38.8734 43 36.25L43 26.75C43 24.1266 45.2386 22 48 22L58 22C60.7614 22 63 24.1266 63 26.75L63 36.25C63 38.8734 60.7614 41 58 41L48 41Z" fill="#00719C"/>
<path fill-rule="evenodd" clip-rule="evenodd" d="M14.25 17.5L4.75 17.5C3.43832 17.5 2.375 16.3807 2.375 15L2.375 5C2.375 3.61929 3.43832 2.5 4.75 2.5L14.25 2.5C15.5617 2.5 16.625 3.61929 16.625 5L16.625 15C16.625 16.3807 15.5617 17.5 14.25 17.5ZM4.75 20C2.12665 20 -1.95703e-07 17.7614 -4.37114e-07 15L-1.31134e-06 5C-1.55275e-06 2.23858 2.12665 1.72143e-06 4.75 1.49209e-06L14.25 6.61574e-07C16.8734 4.32233e-07 19 2.23858 19 5L19 15C19 17.7614 16.8734 20 14.25 20L4.75 20Z" fill="#00719C"/>
<path fill-rule="evenodd" clip-rule="evenodd" d="M36.25 17.5L26.75 17.5C25.4383 17.5 24.375 16.3807 24.375 15L24.375 5C24.375 3.61929 25.4383 2.5 26.75 2.5L36.25 2.5C37.5617 2.5 38.625 3.61929 38.625 5L38.625 15C38.625 16.3807 37.5617 17.5 36.25 17.5ZM26.75 20C24.1266 20 22 17.7614 22 15L22 5C22 2.23858 24.1266 1.72143e-06 26.75 1.49209e-06L36.25 6.61574e-07C38.8734 4.32233e-07 41 2.23858 41 5L41 15C41 17.7614 38.8734 20 36.25 20L26.75 20Z" fill="#00719C"/>
<path fill-rule="evenodd" clip-rule="evenodd" d="M58 17.5L48 17.5C46.6193 17.5 45.5 16.3807 45.5 15L45.5 5C45.5 3.61929 46.6193 2.5 48 2.5L58 2.5C59.3807 2.5 60.5 3.61929 60.5 5L60.5 15C60.5 16.3807 59.3807 17.5 58 17.5ZM48 20C45.2386 20 43 17.7614 43 15L43 5C43 2.23858 45.2386 1.71165e-06 48 1.47023e-06L58 5.96007e-07C60.7614 3.54596e-07 63 2.23858 63 5L63 15C63 17.7614 60.7614 20 58 20L48 20Z" fill="#00719C"/>
<path fill-rule="evenodd" clip-rule="evenodd" d="M55.8642 53.6532C55.3869 54.1156 54.6131 54.1156 54.1358 53.6532L46.358 46.1169C45.8807 45.6544 45.8807 44.9046 46.358 44.4422C46.8353 43.9797 47.6091 43.9797 48.0864 44.4422L53.7778 49.9569L53.7778 13.0431L48.0864 18.5578C47.6091 19.0203 46.8352 19.0203 46.358 18.5578C45.8807 18.0954 45.8807 17.3456 46.358 16.8831L54.1358 9.34685C54.6131 8.88438 55.3869 8.88438 55.8642 9.34685L63.642 16.8831C64.1193 17.3456 64.1193 18.0954 63.642 18.5578C63.1647 19.0203 62.3909 19.0203 61.9136 18.5578L56.2222 13.0431L56.2222 49.9569L61.9136 44.4422C62.3909 43.9797 63.1648 43.9797 63.642 44.4422C64.1193 44.9046 64.1193 45.6544 63.642 46.1169L55.8642 53.6532Z" fill="white"/>
<path fill-rule="evenodd" clip-rule="evenodd" d="M7.34685 32.3162C6.88438 31.8654 6.88438 31.1346 7.34685 30.6838L14.8831 23.3381C15.3456 22.8873 16.0954 22.8873 16.5578 23.3381C17.0203 23.7888 17.0203 24.5197 16.5578 24.9705L11.0431 30.3457L47.9569 30.3457L42.4422 24.9705C41.9797 24.5197 41.9797 23.7888 42.4422 23.3381C42.9046 22.8873 43.6544 22.8873 44.1169 23.3381L51.6532 30.6838C52.1156 31.1346 52.1156 31.8654 51.6532 32.3162L44.1169 39.6619C43.6544 40.1127 42.9046 40.1127 42.4422 39.6619C41.9797 39.2112 41.9797 38.4803 42.4422 38.0295L47.9569 32.6543L11.0431 32.6543L16.5578 38.0295C17.0203 38.4803 17.0203 39.2111 16.5578 39.6619C16.0954 40.1127 15.3456 40.1127 14.8831 39.6619L7.34685 32.3162Z" fill="white"/>
</svg>
