<svg width="62" height="62" viewBox="0 0 62 62" fill="none" xmlns="http://www.w3.org/2000/svg">
<path fill-rule="evenodd" clip-rule="evenodd" d="M59.625 14.25L59.625 4.75C59.625 3.43832 58.5617 2.375 57.25 2.375L47.75 2.375C46.4383 2.375 45.375 3.43832 45.375 4.75L45.375 14.25C45.375 15.5617 46.4383 16.625 47.75 16.625L57.25 16.625C58.5617 16.625 59.625 15.5617 59.625 14.25ZM62 4.75C62 2.12665 59.8734 -9.29587e-08 57.25 -2.07629e-07L47.75 -6.22887e-07C45.1266 -7.37558e-07 43 2.12665 43 4.75L43 14.25C43 16.8734 45.1266 19 47.75 19L57.25 19C59.8734 19 62 16.8734 62 14.25L62 4.75Z" fill="#00719C"/>
<path fill-rule="evenodd" clip-rule="evenodd" d="M59.625 35.25L59.625 25.75C59.625 24.4383 58.5617 23.375 57.25 23.375L47.75 23.375C46.4383 23.375 45.375 24.4383 45.375 25.75L45.375 35.25C45.375 36.5617 46.4383 37.625 47.75 37.625L57.25 37.625C58.5617 37.625 59.625 36.5617 59.625 35.25ZM62 25.75C62 23.1266 59.8734 21 57.25 21L47.75 21C45.1266 21 43 23.1266 43 25.75L43 35.25C43 37.8734 45.1266 40 47.75 40L57.25 40C59.8734 40 62 37.8734 62 35.25L62 25.75Z" fill="#00719C"/>
<path fill-rule="evenodd" clip-rule="evenodd" d="M59.625 57.25L59.625 47.75C59.625 46.4383 58.5617 45.375 57.25 45.375L47.75 45.375C46.4383 45.375 45.375 46.4383 45.375 47.75L45.375 57.25C45.375 58.5617 46.4383 59.625 47.75 59.625L57.25 59.625C58.5617 59.625 59.625 58.5617 59.625 57.25ZM62 47.75C62 45.1266 59.8734 43 57.25 43L47.75 43C45.1266 43 43 45.1266 43 47.75L43 57.25C43 59.8734 45.1266 62 47.75 62L57.25 62C59.8734 62 62 59.8734 62 57.25L62 47.75Z" fill="#00719C"/>
<path fill-rule="evenodd" clip-rule="evenodd" d="M38.625 14.25L38.625 4.75C38.625 3.43832 37.5617 2.375 36.25 2.375L26.75 2.375C25.4383 2.375 24.375 3.43832 24.375 4.75L24.375 14.25C24.375 15.5617 25.4383 16.625 26.75 16.625L36.25 16.625C37.5617 16.625 38.625 15.5617 38.625 14.25ZM41 4.75C41 2.12665 38.8734 -9.29587e-08 36.25 -2.07629e-07L26.75 -6.22887e-07C24.1266 -7.37558e-07 22 2.12665 22 4.75L22 14.25C22 16.8734 24.1266 19 26.75 19L36.25 19C38.8734 19 41 16.8734 41 14.25L41 4.75Z" fill="#00719C"/>
<path fill-rule="evenodd" clip-rule="evenodd" d="M38.625 35.25L38.625 25.75C38.625 24.4383 37.5617 23.375 36.25 23.375L26.75 23.375C25.4383 23.375 24.375 24.4383 24.375 25.75L24.375 35.25C24.375 36.5617 25.4383 37.625 26.75 37.625L36.25 37.625C37.5617 37.625 38.625 36.5617 38.625 35.25ZM41 25.75C41 23.1266 38.8734 21 36.25 21L26.75 21C24.1266 21 22 23.1266 22 25.75L22 35.25C22 37.8734 24.1266 40 26.75 40L36.25 40C38.8734 40 41 37.8734 41 35.25L41 25.75Z" fill="#00719C"/>
<path fill-rule="evenodd" clip-rule="evenodd" d="M38.625 57.25L38.625 47.75C38.625 46.4383 37.5617 45.375 36.25 45.375L26.75 45.375C25.4383 45.375 24.375 46.4383 24.375 47.75L24.375 57.25C24.375 58.5617 25.4383 59.625 26.75 59.625L36.25 59.625C37.5617 59.625 38.625 58.5617 38.625 57.25ZM41 47.75C41 45.1266 38.8734 43 36.25 43L26.75 43C24.1266 43 22 45.1266 22 47.75L22 57.25C22 59.8734 24.1266 62 26.75 62L36.25 62C38.8734 62 41 59.8734 41 57.25L41 47.75Z" fill="#00719C"/>
<path fill-rule="evenodd" clip-rule="evenodd" d="M16.625 14.25L16.625 4.75C16.625 3.43832 15.5617 2.375 14.25 2.375L4.75 2.375C3.43832 2.375 2.375 3.43832 2.375 4.75L2.375 14.25C2.375 15.5617 3.43832 16.625 4.75 16.625L14.25 16.625C15.5617 16.625 16.625 15.5617 16.625 14.25ZM19 4.75C19 2.12665 16.8734 -9.29587e-08 14.25 -2.07629e-07L4.75 -6.22887e-07C2.12665 -7.37558e-07 -9.29587e-08 2.12665 -2.07629e-07 4.75L-6.22887e-07 14.25C-7.37558e-07 16.8734 2.12665 19 4.75 19L14.25 19C16.8734 19 19 16.8734 19 14.25L19 4.75Z" fill="#00719C"/>
<path fill-rule="evenodd" clip-rule="evenodd" d="M16.625 35.25L16.625 25.75C16.625 24.4383 15.5617 23.375 14.25 23.375L4.75 23.375C3.43832 23.375 2.375 24.4383 2.375 25.75L2.375 35.25C2.375 36.5617 3.43832 37.625 4.75 37.625L14.25 37.625C15.5617 37.625 16.625 36.5617 16.625 35.25ZM19 25.75C19 23.1266 16.8734 21 14.25 21L4.75 21C2.12665 21 -9.29587e-08 23.1266 -2.07629e-07 25.75L-6.22887e-07 35.25C-7.37558e-07 37.8734 2.12665 40 4.75 40L14.25 40C16.8734 40 19 37.8734 19 35.25L19 25.75Z" fill="#00719C"/>
<path fill-rule="evenodd" clip-rule="evenodd" d="M16.625 57.25L16.625 47.75C16.625 46.4383 15.5617 45.375 14.25 45.375L4.75 45.375C3.43832 45.375 2.375 46.4383 2.375 47.75L2.375 57.25C2.375 58.5617 3.43832 59.625 4.75 59.625L14.25 59.625C15.5617 59.625 16.625 58.5617 16.625 57.25ZM19 47.75C19 45.1266 16.8734 43 14.25 43L4.75 43C2.12665 43 -9.29587e-08 45.1266 -2.07629e-07 47.75L-6.22887e-07 57.25C-7.37558e-07 59.8734 2.12665 62 4.75 62L14.25 62C16.8734 62 19 59.8734 19 57.25L19 47.75Z" fill="#00719C"/>
<path fill-rule="evenodd" clip-rule="evenodd" d="M61.642 15.937L53.8642 8.34922C53.3869 7.8836 52.6131 7.8836 52.1358 8.34922L44.358 15.937C43.8807 16.4026 43.8807 17.1576 44.358 17.6232C44.8352 18.0888 45.6091 18.0888 46.0864 17.6232L51.7778 12.0708L51.7778 37.8077C51.7778 38.4662 52.325 39 53 39C53.675 39 54.2222 38.4662 54.2222 37.8077L54.2222 12.0708L59.9136 17.6232C60.3909 18.0888 61.1648 18.0888 61.642 17.6232C62.1193 17.1576 62.1193 16.4026 61.642 15.937Z" fill="white"/>
<path fill-rule="evenodd" clip-rule="evenodd" d="M16.0274 0.357963L8.35319 8.1358C7.88227 8.61308 7.88227 9.38692 8.35319 9.8642L16.0274 17.642C16.4983 18.1193 17.2618 18.1193 17.7328 17.642C18.2037 17.1647 18.2037 16.3909 17.7328 15.9136L12.1171 10.2222L47.7941 10.2222C48.4601 10.2222 49 9.67499 49 9C49 8.32502 48.4601 7.77783 47.7941 7.77783L12.1171 7.77783L17.7328 2.08637C18.2037 1.60908 18.2037 0.83525 17.7328 0.357964C17.2618 -0.119323 16.4983 -0.119323 16.0274 0.357963Z" fill="white"/>
<path fill-rule="evenodd" clip-rule="evenodd" d="M41.9922 53.4826L52.7822 53.4826C53.4443 53.4826 53.9811 52.9458 53.9811 52.2837L53.9811 41.4937C53.9811 40.8316 53.4443 40.2948 52.7822 40.2948C52.12 40.2948 51.5833 40.8316 51.5833 41.4937L51.5833 49.3893L20.6605 18.4666C20.1923 17.9984 19.4332 17.9984 18.965 18.4666C18.4968 18.9348 18.4968 19.6938 18.965 20.162L49.8878 51.0848L41.9922 51.0848C41.3301 51.0848 40.7933 51.6216 40.7933 52.2837C40.7933 52.9458 41.3301 53.4826 41.9922 53.4826Z" fill="white"/>
</svg>
