<svg width="62" height="62" viewBox="0 0 62 62" fill="none" xmlns="http://www.w3.org/2000/svg">
<path fill-rule="evenodd" clip-rule="evenodd" d="M47.75 2.375H57.25C58.5617 2.375 59.625 3.43832 59.625 4.75V14.25C59.625 15.5617 58.5617 16.625 57.25 16.625H47.75C46.4383 16.625 45.375 15.5617 45.375 14.25V4.75C45.375 3.43832 46.4383 2.375 47.75 2.375ZM57.25 0C59.8734 0 62 2.12665 62 4.75V14.25C62 16.8734 59.8734 19 57.25 19H47.75C45.1266 19 43 16.8734 43 14.25V4.75C43 2.12665 45.1266 0 47.75 0H57.25Z" fill="#00719C"/>
<path fill-rule="evenodd" clip-rule="evenodd" d="M26.75 2.375H36.25C37.5617 2.375 38.625 3.43832 38.625 4.75V14.25C38.625 15.5617 37.5617 16.625 36.25 16.625H26.75C25.4383 16.625 24.375 15.5617 24.375 14.25V4.75C24.375 3.43832 25.4383 2.375 26.75 2.375ZM36.25 0C38.8734 0 41 2.12665 41 4.75V14.25C41 16.8734 38.8734 19 36.25 19H26.75C24.1266 19 22 16.8734 22 14.25V4.75C22 2.12665 24.1266 0 26.75 0H36.25Z" fill="#00719C"/>
<path fill-rule="evenodd" clip-rule="evenodd" d="M4.75 2.375H14.25C15.5617 2.375 16.625 3.43832 16.625 4.75V14.25C16.625 15.5617 15.5617 16.625 14.25 16.625H4.75C3.43832 16.625 2.375 15.5617 2.375 14.25V4.75C2.375 3.43832 3.43832 2.375 4.75 2.375ZM14.25 0C16.8734 0 19 2.12665 19 4.75V14.25C19 16.8734 16.8734 19 14.25 19H4.75C2.12665 19 0 16.8734 0 14.25V4.75C0 2.12665 2.12665 0 4.75 0H14.25Z" fill="#00719C"/>
<path fill-rule="evenodd" clip-rule="evenodd" d="M47.75 24.375H57.25C58.5617 24.375 59.625 25.4383 59.625 26.75V36.25C59.625 37.5617 58.5617 38.625 57.25 38.625H47.75C46.4383 38.625 45.375 37.5617 45.375 36.25V26.75C45.375 25.4383 46.4383 24.375 47.75 24.375ZM57.25 22C59.8734 22 62 24.1266 62 26.75V36.25C62 38.8734 59.8734 41 57.25 41H47.75C45.1266 41 43 38.8734 43 36.25V26.75C43 24.1266 45.1266 22 47.75 22H57.25Z" fill="#00719C"/>
<path fill-rule="evenodd" clip-rule="evenodd" d="M26.75 24.375H36.25C37.5617 24.375 38.625 25.4383 38.625 26.75V36.25C38.625 37.5617 37.5617 38.625 36.25 38.625H26.75C25.4383 38.625 24.375 37.5617 24.375 36.25V26.75C24.375 25.4383 25.4383 24.375 26.75 24.375ZM36.25 22C38.8734 22 41 24.1266 41 26.75V36.25C41 38.8734 38.8734 41 36.25 41H26.75C24.1266 41 22 38.8734 22 36.25V26.75C22 24.1266 24.1266 22 26.75 22H36.25Z" fill="#00719C"/>
<path fill-rule="evenodd" clip-rule="evenodd" d="M4.75 24.375H14.25C15.5617 24.375 16.625 25.4383 16.625 26.75V36.25C16.625 37.5617 15.5617 38.625 14.25 38.625H4.75C3.43832 38.625 2.375 37.5617 2.375 36.25V26.75C2.375 25.4383 3.43832 24.375 4.75 24.375ZM14.25 22C16.8734 22 19 24.1266 19 26.75V36.25C19 38.8734 16.8734 41 14.25 41H4.75C2.12665 41 0 38.8734 0 36.25V26.75C0 24.1266 2.12665 22 4.75 22H14.25Z" fill="#00719C"/>
<path fill-rule="evenodd" clip-rule="evenodd" d="M47.75 45.375H57.25C58.5617 45.375 59.625 46.4383 59.625 47.75V57.25C59.625 58.5617 58.5617 59.625 57.25 59.625H47.75C46.4383 59.625 45.375 58.5617 45.375 57.25V47.75C45.375 46.4383 46.4383 45.375 47.75 45.375ZM57.25 43C59.8734 43 62 45.1266 62 47.75V57.25C62 59.8734 59.8734 62 57.25 62H47.75C45.1266 62 43 59.8734 43 57.25V47.75C43 45.1266 45.1266 43 47.75 43H57.25Z" fill="#00719C"/>
<path fill-rule="evenodd" clip-rule="evenodd" d="M26.75 45.375H36.25C37.5617 45.375 38.625 46.4383 38.625 47.75V57.25C38.625 58.5617 37.5617 59.625 36.25 59.625H26.75C25.4383 59.625 24.375 58.5617 24.375 57.25V47.75C24.375 46.4383 25.4383 45.375 26.75 45.375ZM36.25 43C38.8734 43 41 45.1266 41 47.75V57.25C41 59.8734 38.8734 62 36.25 62H26.75C24.1266 62 22 59.8734 22 57.25V47.75C22 45.1266 24.1266 43 26.75 43H36.25Z" fill="#00719C"/>
<path fill-rule="evenodd" clip-rule="evenodd" d="M4.75 45.375H14.25C15.5617 45.375 16.625 46.4383 16.625 47.75V57.25C16.625 58.5617 15.5617 59.625 14.25 59.625H4.75C3.43832 59.625 2.375 58.5617 2.375 57.25V47.75C2.375 46.4383 3.43832 45.375 4.75 45.375ZM14.25 43C16.8734 43 19 45.1266 19 47.75V57.25C19 59.8734 16.8734 62 14.25 62H4.75C2.12665 62 0 59.8734 0 57.25V47.75C0 45.1266 2.12665 43 4.75 43H14.25Z" fill="#00719C"/>
<path fill-rule="evenodd" clip-rule="evenodd" d="M52.7098 8.45757C53.3719 8.45757 53.9087 8.99433 53.9087 9.65646L53.9087 20.4464C53.9087 21.1086 53.3719 21.6453 52.7098 21.6453C52.0477 21.6453 51.5109 21.1086 51.5109 20.4464V12.5508L12.4442 51.6175L20.3399 51.6175C21.002 51.6175 21.5387 52.1543 21.5387 52.8164C21.5387 53.4785 21.002 54.0153 20.3399 54.0153L9.54987 54.0153C8.88775 54.0153 8.35099 53.4785 8.35098 52.8164L8.35098 42.0264C8.35099 41.3643 8.88774 40.8275 9.54987 40.8275C10.212 40.8275 10.7488 41.3643 10.7488 42.0264V49.922L49.8154 10.8553L41.9198 10.8553C41.2577 10.8553 40.7209 10.3186 40.7209 9.65646C40.7209 8.99433 41.2577 8.45757 41.9198 8.45757L52.7098 8.45757Z" fill="white"/>
<path fill-rule="evenodd" clip-rule="evenodd" d="M8.35455 31.8642C7.88181 31.3869 7.88181 30.6131 8.35455 30.1358L16.0583 22.358C16.531 21.8807 17.2975 21.8807 17.7702 22.358C18.243 22.8353 18.243 23.6091 17.7702 24.0864L12.133 29.7778H49.867L44.2298 24.0864C43.757 23.6091 43.757 22.8353 44.2298 22.358C44.7025 21.8807 45.469 21.8807 45.9417 22.358L53.6454 30.1358C54.1182 30.6131 54.1182 31.3869 53.6454 31.8642L45.9417 39.642C45.469 40.1193 44.7025 40.1193 44.2298 39.642C43.757 39.1647 43.757 38.3909 44.2298 37.9136L49.867 32.2222H12.133L17.7702 37.9136C18.243 38.3909 18.243 39.1647 17.7702 39.642C17.2975 40.1193 16.531 40.1193 16.0583 39.642L8.35455 31.8642Z" fill="white"/>
</svg>
