<svg width="62" height="62" viewBox="0 0 62 62" fill="none" xmlns="http://www.w3.org/2000/svg">
<path fill-rule="evenodd" clip-rule="evenodd" d="M47.75 2.375H57.25C58.5617 2.375 59.625 3.43832 59.625 4.75V14.25C59.625 15.5617 58.5617 16.625 57.25 16.625H47.75C46.4383 16.625 45.375 15.5617 45.375 14.25V4.75C45.375 3.43832 46.4383 2.375 47.75 2.375ZM57.25 0C59.8734 0 62 2.12665 62 4.75V14.25C62 16.8734 59.8734 19 57.25 19H47.75C45.1266 19 43 16.8734 43 14.25V4.75C43 2.12665 45.1266 0 47.75 0H57.25Z" fill="#00719C"/>
<path fill-rule="evenodd" clip-rule="evenodd" d="M26 2.375H36C37.3807 2.375 38.5 3.43832 38.5 4.75V14.25C38.5 15.5617 37.3807 16.625 36 16.625H26C24.6193 16.625 23.5 15.5617 23.5 14.25V4.75C23.5 3.43832 24.6193 2.375 26 2.375ZM36 0C38.7614 0 41 2.12665 41 4.75V14.25C41 16.8734 38.7614 19 36 19H26C23.2386 19 21 16.8734 21 14.25V4.75C21 2.12665 23.2386 0 26 0H36Z" fill="#00719C"/>
<path fill-rule="evenodd" clip-rule="evenodd" d="M4.75 2.375H14.25C15.5617 2.375 16.625 3.43832 16.625 4.75V14.25C16.625 15.5617 15.5617 16.625 14.25 16.625H4.75C3.43832 16.625 2.375 15.5617 2.375 14.25V4.75C2.375 3.43832 3.43832 2.375 4.75 2.375ZM14.25 0C16.8734 0 19 2.12665 19 4.75V14.25C19 16.8734 16.8734 19 14.25 19H4.75C2.12665 19 -1.90735e-06 16.8734 -1.90735e-06 14.25V4.75C-1.90735e-06 2.12665 2.12665 0 4.75 0H14.25Z" fill="#00719C"/>
<path fill-rule="evenodd" clip-rule="evenodd" d="M47.75 24.375H57.25C58.5617 24.375 59.625 25.4383 59.625 26.75V36.25C59.625 37.5617 58.5617 38.625 57.25 38.625H47.75C46.4383 38.625 45.375 37.5617 45.375 36.25V26.75C45.375 25.4383 46.4383 24.375 47.75 24.375ZM57.25 22C59.8734 22 62 24.1266 62 26.75V36.25C62 38.8734 59.8734 41 57.25 41H47.75C45.1266 41 43 38.8734 43 36.25V26.75C43 24.1266 45.1266 22 47.75 22H57.25Z" fill="#00719C"/>
<path fill-rule="evenodd" clip-rule="evenodd" d="M26 24.375H36C37.3807 24.375 38.5 25.4383 38.5 26.75V36.25C38.5 37.5617 37.3807 38.625 36 38.625H26C24.6193 38.625 23.5 37.5617 23.5 36.25V26.75C23.5 25.4383 24.6193 24.375 26 24.375ZM36 22C38.7614 22 41 24.1266 41 26.75V36.25C41 38.8734 38.7614 41 36 41H26C23.2386 41 21 38.8734 21 36.25V26.75C21 24.1266 23.2386 22 26 22H36Z" fill="#00719C"/>
<path fill-rule="evenodd" clip-rule="evenodd" d="M4.75 24.375H14.25C15.5617 24.375 16.625 25.4383 16.625 26.75V36.25C16.625 37.5617 15.5617 38.625 14.25 38.625H4.75C3.43832 38.625 2.375 37.5617 2.375 36.25V26.75C2.375 25.4383 3.43832 24.375 4.75 24.375ZM14.25 22C16.8734 22 19 24.1266 19 26.75V36.25C19 38.8734 16.8734 41 14.25 41H4.75C2.12665 41 -1.90735e-06 38.8734 -1.90735e-06 36.25V26.75C-1.90735e-06 24.1266 2.12665 22 4.75 22H14.25Z" fill="#00719C"/>
<path fill-rule="evenodd" clip-rule="evenodd" d="M47.75 45.375H57.25C58.5617 45.375 59.625 46.4383 59.625 47.75V57.25C59.625 58.5617 58.5617 59.625 57.25 59.625H47.75C46.4383 59.625 45.375 58.5617 45.375 57.25V47.75C45.375 46.4383 46.4383 45.375 47.75 45.375ZM57.25 43C59.8734 43 62 45.1266 62 47.75V57.25C62 59.8734 59.8734 62 57.25 62H47.75C45.1266 62 43 59.8734 43 57.25V47.75C43 45.1266 45.1266 43 47.75 43H57.25Z" fill="#00719C"/>
<path fill-rule="evenodd" clip-rule="evenodd" d="M26 45.375H36C37.3807 45.375 38.5 46.4383 38.5 47.75V57.25C38.5 58.5617 37.3807 59.625 36 59.625H26C24.6193 59.625 23.5 58.5617 23.5 57.25V47.75C23.5 46.4383 24.6193 45.375 26 45.375ZM36 43C38.7614 43 41 45.1266 41 47.75V57.25C41 59.8734 38.7614 62 36 62H26C23.2386 62 21 59.8734 21 57.25V47.75C21 45.1266 23.2386 43 26 43H36Z" fill="#00719C"/>
<path fill-rule="evenodd" clip-rule="evenodd" d="M4.75 45.375H14.25C15.5617 45.375 16.625 46.4383 16.625 47.75V57.25C16.625 58.5617 15.5617 59.625 14.25 59.625H4.75C3.43832 59.625 2.375 58.5617 2.375 57.25V47.75C2.375 46.4383 3.43832 45.375 4.75 45.375ZM14.25 43C16.8734 43 19 45.1266 19 47.75V57.25C19 59.8734 16.8734 62 14.25 62H4.75C2.12665 62 -1.90735e-06 59.8734 -1.90735e-06 57.25V47.75C-1.90735e-06 45.1266 2.12665 43 4.75 43H14.25Z" fill="#00719C"/>
<path fill-rule="evenodd" clip-rule="evenodd" d="M8.14275 9.59109C8.14275 8.92896 8.67951 8.3922 9.34164 8.3922L20.1316 8.3922C20.7938 8.3922 21.3305 8.92896 21.3305 9.59109C21.3305 10.2532 20.7938 10.79 20.1316 10.79L12.236 10.79L51.3027 49.8567L51.3027 41.961C51.3027 41.2989 51.8395 40.7622 52.5016 40.7622C53.1637 40.7622 53.7005 41.2989 53.7005 41.961L53.7005 52.751C53.7005 53.4132 53.1637 53.9499 52.5016 53.9499L41.7116 53.9499C41.0495 53.9499 40.5127 53.4132 40.5127 52.751C40.5127 52.0889 41.0495 51.5521 41.7116 51.5521L49.6072 51.5521L10.5405 12.4855L10.5405 20.3811C10.5405 21.0432 10.0038 21.58 9.34164 21.58C8.67951 21.58 8.14275 21.0432 8.14275 20.3811L8.14275 9.59109Z" fill="white"/>
<path fill-rule="evenodd" clip-rule="evenodd" d="M30.9216 8.3922C30.2595 8.3922 29.7227 8.92896 29.7227 9.59109L29.7227 20.3811C29.7227 21.0432 30.2595 21.58 30.9216 21.58C31.5837 21.58 32.1205 21.0432 32.1205 20.3811L32.1205 12.4855L49.6072 29.9722L41.7116 29.9722C41.0495 29.9722 40.5127 30.5089 40.5127 31.1711C40.5127 31.8332 41.0494 32.37 41.7116 32.37L52.5016 32.37C53.1637 32.37 53.7005 31.8332 53.7004 31.1711L53.7005 20.3811C53.7005 19.719 53.1637 19.1822 52.5016 19.1822C51.8394 19.1822 51.3027 19.719 51.3027 20.3811L51.3027 28.2767L33.816 10.79L41.7116 10.79C42.3737 10.79 42.9105 10.2532 42.9105 9.59109C42.9105 8.92897 42.3737 8.39221 41.7116 8.39221L30.9216 8.3922Z" fill="white"/>
</svg>
