<svg width="63" height="62" viewBox="0 0 63 62" fill="none" xmlns="http://www.w3.org/2000/svg">
<path fill-rule="evenodd" clip-rule="evenodd" d="M48 2.375H58C59.3807 2.375 60.5 3.43832 60.5 4.75V14.25C60.5 15.5617 59.3807 16.625 58 16.625H48C46.6193 16.625 45.5 15.5617 45.5 14.25V4.75C45.5 3.43832 46.6193 2.375 48 2.375ZM58 0C60.7614 0 63 2.12665 63 4.75V14.25C63 16.8734 60.7614 19 58 19H48C45.2386 19 43 16.8734 43 14.25V4.75C43 2.12665 45.2386 0 48 0H58Z" fill="#00719C"/>
<path fill-rule="evenodd" clip-rule="evenodd" d="M26.75 2.375H36.25C37.5617 2.375 38.625 3.43832 38.625 4.75V14.25C38.625 15.5617 37.5617 16.625 36.25 16.625H26.75C25.4383 16.625 24.375 15.5617 24.375 14.25V4.75C24.375 3.43832 25.4383 2.375 26.75 2.375ZM36.25 0C38.8734 0 41 2.12665 41 4.75V14.25C41 16.8734 38.8734 19 36.25 19H26.75C24.1266 19 22 16.8734 22 14.25V4.75C22 2.12665 24.1266 0 26.75 0H36.25Z" fill="#00719C"/>
<path fill-rule="evenodd" clip-rule="evenodd" d="M4.75 2.375H14.25C15.5617 2.375 16.625 3.43832 16.625 4.75V14.25C16.625 15.5617 15.5617 16.625 14.25 16.625H4.75C3.43832 16.625 2.375 15.5617 2.375 14.25V4.75C2.375 3.43832 3.43832 2.375 4.75 2.375ZM14.25 0C16.8734 0 19 2.12665 19 4.75V14.25C19 16.8734 16.8734 19 14.25 19H4.75C2.12665 19 0 16.8734 0 14.25V4.75C0 2.12665 2.12665 0 4.75 0H14.25Z" fill="#00719C"/>
<path fill-rule="evenodd" clip-rule="evenodd" d="M48 23.375H58C59.3807 23.375 60.5 24.4383 60.5 25.75V35.25C60.5 36.5617 59.3807 37.625 58 37.625H48C46.6193 37.625 45.5 36.5617 45.5 35.25V25.75C45.5 24.4383 46.6193 23.375 48 23.375ZM58 21C60.7614 21 63 23.1266 63 25.75V35.25C63 37.8734 60.7614 40 58 40H48C45.2386 40 43 37.8734 43 35.25V25.75C43 23.1266 45.2386 21 48 21H58Z" fill="#00719C"/>
<path fill-rule="evenodd" clip-rule="evenodd" d="M26.75 23.375H36.25C37.5617 23.375 38.625 24.4383 38.625 25.75V35.25C38.625 36.5617 37.5617 37.625 36.25 37.625H26.75C25.4383 37.625 24.375 36.5617 24.375 35.25V25.75C24.375 24.4383 25.4383 23.375 26.75 23.375ZM36.25 21C38.8734 21 41 23.1266 41 25.75V35.25C41 37.8734 38.8734 40 36.25 40H26.75C24.1266 40 22 37.8734 22 35.25V25.75C22 23.1266 24.1266 21 26.75 21H36.25Z" fill="#00719C"/>
<path fill-rule="evenodd" clip-rule="evenodd" d="M4.75 23.375H14.25C15.5617 23.375 16.625 24.4383 16.625 25.75V35.25C16.625 36.5617 15.5617 37.625 14.25 37.625H4.75C3.43832 37.625 2.375 36.5617 2.375 35.25V25.75C2.375 24.4383 3.43832 23.375 4.75 23.375ZM14.25 21C16.8734 21 19 23.1266 19 25.75V35.25C19 37.8734 16.8734 40 14.25 40H4.75C2.12665 40 0 37.8734 0 35.25V25.75C0 23.1266 2.12665 21 4.75 21H14.25Z" fill="#00719C"/>
<path fill-rule="evenodd" clip-rule="evenodd" d="M48 45.375H58C59.3807 45.375 60.5 46.4383 60.5 47.75V57.25C60.5 58.5617 59.3807 59.625 58 59.625H48C46.6193 59.625 45.5 58.5617 45.5 57.25V47.75C45.5 46.4383 46.6193 45.375 48 45.375ZM58 43C60.7614 43 63 45.1266 63 47.75V57.25C63 59.8734 60.7614 62 58 62H48C45.2386 62 43 59.8734 43 57.25V47.75C43 45.1266 45.2386 43 48 43H58Z" fill="#00719C"/>
<path fill-rule="evenodd" clip-rule="evenodd" d="M26.75 45.375H36.25C37.5617 45.375 38.625 46.4383 38.625 47.75V57.25C38.625 58.5617 37.5617 59.625 36.25 59.625H26.75C25.4383 59.625 24.375 58.5617 24.375 57.25V47.75C24.375 46.4383 25.4383 45.375 26.75 45.375ZM36.25 43C38.8734 43 41 45.1266 41 47.75V57.25C41 59.8734 38.8734 62 36.25 62H26.75C24.1266 62 22 59.8734 22 57.25V47.75C22 45.1266 24.1266 43 26.75 43H36.25Z" fill="#00719C"/>
<path fill-rule="evenodd" clip-rule="evenodd" d="M4.75 45.375H14.25C15.5617 45.375 16.625 46.4383 16.625 47.75V57.25C16.625 58.5617 15.5617 59.625 14.25 59.625H4.75C3.43832 59.625 2.375 58.5617 2.375 57.25V47.75C2.375 46.4383 3.43832 45.375 4.75 45.375ZM14.25 43C16.8734 43 19 45.1266 19 47.75V57.25C19 59.8734 16.8734 62 14.25 62H4.75C2.12665 62 0 59.8734 0 57.25V47.75C0 45.1266 2.12665 43 4.75 43H14.25Z" fill="#00719C"/>
<path fill-rule="evenodd" clip-rule="evenodd" d="M46.063 0.357963L53.6508 8.13579C54.1164 8.61308 54.1164 9.38692 53.6508 9.8642L46.063 17.642C45.5974 18.1193 44.8424 18.1193 44.3768 17.642C43.9112 17.1647 43.9112 16.3909 44.3768 15.9136L49.9292 10.2222L24.1923 10.2222C23.5338 10.2222 23 9.67499 23 9C23 8.32502 23.5338 7.77783 24.1923 7.77783L49.9292 7.77783L44.3768 2.08637C43.9112 1.60908 43.9112 0.83525 44.3768 0.357963C44.8424 -0.119324 45.5974 -0.119324 46.063 0.357963Z" fill="white"/>
<path fill-rule="evenodd" clip-rule="evenodd" d="M61.642 45.1684L53.8642 52.6554C53.3869 53.1149 52.6131 53.1149 52.1358 52.6554L44.358 45.1684C43.8807 44.709 43.8807 43.9641 44.358 43.5046C44.8353 43.0452 45.6091 43.0452 46.0864 43.5046L51.7778 48.9833V14.1765C51.7778 13.5267 52.325 13 53 13C53.675 13 54.2222 13.5267 54.2222 14.1765V48.9833L59.9136 43.5046C60.3909 43.0452 61.1647 43.0452 61.642 43.5046C62.1193 43.9641 62.1193 44.709 61.642 45.1684Z" fill="white"/>
<path fill-rule="evenodd" clip-rule="evenodd" d="M8.70009 19.9138L8.70009 9.12378C8.70009 8.46165 9.23685 7.92489 9.89898 7.92489L20.689 7.92489C21.3511 7.92489 21.8879 8.46165 21.8879 9.12378C21.8879 9.7859 21.3511 10.3227 20.689 10.3227H12.7934L43.7161 41.2454C44.1843 41.7136 44.1843 42.4727 43.7161 42.9409C43.2479 43.4091 42.4888 43.4091 42.0206 42.9409L11.0979 12.0181L11.0979 19.9138C11.0979 20.5759 10.5611 21.1127 9.89898 21.1127C9.23685 21.1127 8.70009 20.5759 8.70009 19.9138Z" fill="white"/>
</svg>
