<svg width="63" height="62" viewBox="0 0 63 62" fill="none" xmlns="http://www.w3.org/2000/svg">
<path fill-rule="evenodd" clip-rule="evenodd" d="M48 2.375H58C59.3807 2.375 60.5 3.43832 60.5 4.75V14.25C60.5 15.5617 59.3807 16.625 58 16.625H48C46.6193 16.625 45.5 15.5617 45.5 14.25V4.75C45.5 3.43832 46.6193 2.375 48 2.375ZM58 0C60.7614 0 63 2.12665 63 4.75V14.25C63 16.8734 60.7614 19 58 19H48C45.2386 19 43 16.8734 43 14.25V4.75C43 2.12665 45.2386 0 48 0H58Z" fill="#00719C"/>
<path fill-rule="evenodd" clip-rule="evenodd" d="M26.75 2.375H36.25C37.5617 2.375 38.625 3.43832 38.625 4.75V14.25C38.625 15.5617 37.5617 16.625 36.25 16.625H26.75C25.4383 16.625 24.375 15.5617 24.375 14.25V4.75C24.375 3.43832 25.4383 2.375 26.75 2.375ZM36.25 0C38.8734 0 41 2.12665 41 4.75V14.25C41 16.8734 38.8734 19 36.25 19H26.75C24.1266 19 22 16.8734 22 14.25V4.75C22 2.12665 24.1266 0 26.75 0H36.25Z" fill="#00719C"/>
<path fill-rule="evenodd" clip-rule="evenodd" d="M4.75 2.375H14.25C15.5617 2.375 16.625 3.43832 16.625 4.75V14.25C16.625 15.5617 15.5617 16.625 14.25 16.625H4.75C3.43832 16.625 2.375 15.5617 2.375 14.25V4.75C2.375 3.43832 3.43832 2.375 4.75 2.375ZM14.25 0C16.8734 0 19 2.12665 19 4.75V14.25C19 16.8734 16.8734 19 14.25 19H4.75C2.12665 19 0 16.8734 0 14.25V4.75C0 2.12665 2.12665 0 4.75 0H14.25Z" fill="#00719C"/>
<path fill-rule="evenodd" clip-rule="evenodd" d="M48 24.375H58C59.3807 24.375 60.5 25.4383 60.5 26.75V36.25C60.5 37.5617 59.3807 38.625 58 38.625H48C46.6193 38.625 45.5 37.5617 45.5 36.25V26.75C45.5 25.4383 46.6193 24.375 48 24.375ZM58 22C60.7614 22 63 24.1266 63 26.75V36.25C63 38.8734 60.7614 41 58 41H48C45.2386 41 43 38.8734 43 36.25V26.75C43 24.1266 45.2386 22 48 22H58Z" fill="#00719C"/>
<path fill-rule="evenodd" clip-rule="evenodd" d="M26.75 24.375H36.25C37.5617 24.375 38.625 25.4383 38.625 26.75V36.25C38.625 37.5617 37.5617 38.625 36.25 38.625H26.75C25.4383 38.625 24.375 37.5617 24.375 36.25V26.75C24.375 25.4383 25.4383 24.375 26.75 24.375ZM36.25 22C38.8734 22 41 24.1266 41 26.75V36.25C41 38.8734 38.8734 41 36.25 41H26.75C24.1266 41 22 38.8734 22 36.25V26.75C22 24.1266 24.1266 22 26.75 22H36.25Z" fill="#00719C"/>
<path fill-rule="evenodd" clip-rule="evenodd" d="M4.75 24.375H14.25C15.5617 24.375 16.625 25.4383 16.625 26.75V36.25C16.625 37.5617 15.5617 38.625 14.25 38.625H4.75C3.43832 38.625 2.375 37.5617 2.375 36.25V26.75C2.375 25.4383 3.43832 24.375 4.75 24.375ZM14.25 22C16.8734 22 19 24.1266 19 26.75V36.25C19 38.8734 16.8734 41 14.25 41H4.75C2.12665 41 0 38.8734 0 36.25V26.75C0 24.1266 2.12665 22 4.75 22H14.25Z" fill="#00719C"/>
<path fill-rule="evenodd" clip-rule="evenodd" d="M48 45.375H58C59.3807 45.375 60.5 46.4383 60.5 47.75V57.25C60.5 58.5617 59.3807 59.625 58 59.625H48C46.6193 59.625 45.5 58.5617 45.5 57.25V47.75C45.5 46.4383 46.6193 45.375 48 45.375ZM58 43C60.7614 43 63 45.1266 63 47.75V57.25C63 59.8734 60.7614 62 58 62H48C45.2386 62 43 59.8734 43 57.25V47.75C43 45.1266 45.2386 43 48 43H58Z" fill="#00719C"/>
<path fill-rule="evenodd" clip-rule="evenodd" d="M26.75 45.375H36.25C37.5617 45.375 38.625 46.4383 38.625 47.75V57.25C38.625 58.5617 37.5617 59.625 36.25 59.625H26.75C25.4383 59.625 24.375 58.5617 24.375 57.25V47.75C24.375 46.4383 25.4383 45.375 26.75 45.375ZM36.25 43C38.8734 43 41 45.1266 41 47.75V57.25C41 59.8734 38.8734 62 36.25 62H26.75C24.1266 62 22 59.8734 22 57.25V47.75C22 45.1266 24.1266 43 26.75 43H36.25Z" fill="#00719C"/>
<path fill-rule="evenodd" clip-rule="evenodd" d="M4.75 45.375H14.25C15.5617 45.375 16.625 46.4383 16.625 47.75V57.25C16.625 58.5617 15.5617 59.625 14.25 59.625H4.75C3.43832 59.625 2.375 58.5617 2.375 57.25V47.75C2.375 46.4383 3.43832 45.375 4.75 45.375ZM14.25 43C16.8734 43 19 45.1266 19 47.75V57.25C19 59.8734 16.8734 62 14.25 62H4.75C2.12665 62 0 59.8734 0 57.25V47.75C0 45.1266 2.12665 43 4.75 43H14.25Z" fill="#00719C"/>
<path fill-rule="evenodd" clip-rule="evenodd" d="M30.6838 8.35455C31.1346 7.88181 31.8654 7.88181 32.3162 8.35455L39.6619 16.0583C40.1127 16.531 40.1127 17.2975 39.6619 17.7702C39.2112 18.243 38.4803 18.243 38.0295 17.7702L32.6543 12.133V49.867L38.0295 44.2298C38.4803 43.757 39.2112 43.757 39.6619 44.2298C40.1127 44.7025 40.1127 45.469 39.6619 45.9417L32.3162 53.6454C31.8654 54.1182 31.1346 54.1182 30.6838 53.6454L23.3381 45.9417C22.8873 45.469 22.8873 44.7025 23.3381 44.2298C23.7888 43.757 24.5197 43.757 24.9705 44.2298L30.3457 49.867V12.133L24.9705 17.7702C24.5197 18.243 23.7888 18.243 23.3381 17.7702C22.8873 17.2975 22.8873 16.531 23.3381 16.0583L30.6838 8.35455Z" fill="white"/>
<path fill-rule="evenodd" clip-rule="evenodd" d="M9.34685 31.8642C8.88438 31.3869 8.88438 30.6131 9.34685 30.1358L16.8831 22.358C17.3456 21.8807 18.0954 21.8807 18.5578 22.358C19.0203 22.8353 19.0203 23.6091 18.5578 24.0864L13.0431 29.7778H49.9569L44.4422 24.0864C43.9797 23.6091 43.9797 22.8353 44.4422 22.358C44.9046 21.8807 45.6544 21.8807 46.1169 22.358L53.6532 30.1358C54.1156 30.6131 54.1156 31.3869 53.6532 31.8642L46.1169 39.642C45.6544 40.1193 44.9046 40.1193 44.4422 39.642C43.9797 39.1647 43.9797 38.3909 44.4422 37.9136L49.9569 32.2222H13.0431L18.5578 37.9136C19.0203 38.3909 19.0203 39.1647 18.5578 39.642C18.0954 40.1193 17.3456 40.1193 16.8831 39.642L9.34685 31.8642Z" fill="white"/>
</svg>
