<svg width="64" height="63" viewBox="0 0 64 63" fill="none" xmlns="http://www.w3.org/2000/svg">
<path fill-rule="evenodd" clip-rule="evenodd" d="M49 3.375L59 3.375C60.3807 3.375 61.5 4.43832 61.5 5.75L61.5 15.25C61.5 16.5617 60.3807 17.625 59 17.625L49 17.625C47.6193 17.625 46.5 16.5617 46.5 15.25L46.5 5.75C46.5 4.43833 47.6193 3.375 49 3.375ZM59 1C61.7614 1 64 3.12665 64 5.75L64 15.25C64 17.8733 61.7614 20 59 20L49 20C46.2386 20 44 17.8734 44 15.25L44 5.75C44 3.12665 46.2386 1 49 1L59 1Z" fill="#00719C"/>
<path fill-rule="evenodd" clip-rule="evenodd" d="M27.75 3.375L37.25 3.375C38.5617 3.375 39.625 4.43832 39.625 5.75L39.625 15.25C39.625 16.5617 38.5617 17.625 37.25 17.625L27.75 17.625C26.4383 17.625 25.375 16.5617 25.375 15.25L25.375 5.75C25.375 4.43833 26.4383 3.375 27.75 3.375ZM37.25 1C39.8734 1 42 3.12665 42 5.75L42 15.25C42 17.8733 39.8734 20 37.25 20L27.75 20C25.1266 20 23 17.8734 23 15.25L23 5.75C23 3.12665 25.1266 1 27.75 1L37.25 1Z" fill="#00719C"/>
<path fill-rule="evenodd" clip-rule="evenodd" d="M5.75 3.375L15.25 3.375C16.5617 3.375 17.625 4.43832 17.625 5.75L17.625 15.25C17.625 16.5617 16.5617 17.625 15.25 17.625L5.75 17.625C4.43832 17.625 3.375 16.5617 3.375 15.25L3.375 5.75C3.375 4.43833 4.43832 3.375 5.75 3.375ZM15.25 1C17.8734 1 20 3.12665 20 5.75L20 15.25C20 17.8733 17.8734 20 15.25 20L5.75 20C3.12665 20 0.999999 17.8734 0.999999 15.25L0.999997 5.75C0.999997 3.12665 3.12664 1 5.75 1L15.25 1Z" fill="#00719C"/>
<path fill-rule="evenodd" clip-rule="evenodd" d="M49 24.375L59 24.375C60.3807 24.375 61.5 25.4383 61.5 26.75L61.5 36.25C61.5 37.5617 60.3807 38.625 59 38.625L49 38.625C47.6193 38.625 46.5 37.5617 46.5 36.25L46.5 26.75C46.5 25.4383 47.6193 24.375 49 24.375ZM59 22C61.7614 22 64 24.1266 64 26.75L64 36.25C64 38.8733 61.7614 41 59 41L49 41C46.2386 41 44 38.8734 44 36.25L44 26.75C44 24.1267 46.2386 22 49 22L59 22Z" fill="#00719C"/>
<path fill-rule="evenodd" clip-rule="evenodd" d="M27.75 24.375L37.25 24.375C38.5617 24.375 39.625 25.4383 39.625 26.75L39.625 36.25C39.625 37.5617 38.5617 38.625 37.25 38.625L27.75 38.625C26.4383 38.625 25.375 37.5617 25.375 36.25L25.375 26.75C25.375 25.4383 26.4383 24.375 27.75 24.375ZM37.25 22C39.8734 22 42 24.1266 42 26.75L42 36.25C42 38.8733 39.8734 41 37.25 41L27.75 41C25.1266 41 23 38.8734 23 36.25L23 26.75C23 24.1267 25.1266 22 27.75 22L37.25 22Z" fill="#00719C"/>
<path fill-rule="evenodd" clip-rule="evenodd" d="M5.75 24.375L15.25 24.375C16.5617 24.375 17.625 25.4383 17.625 26.75L17.625 36.25C17.625 37.5617 16.5617 38.625 15.25 38.625L5.75 38.625C4.43832 38.625 3.375 37.5617 3.375 36.25L3.375 26.75C3.375 25.4383 4.43832 24.375 5.75 24.375ZM15.25 22C17.8734 22 20 24.1266 20 26.75L20 36.25C20 38.8733 17.8734 41 15.25 41L5.75 41C3.12665 41 0.999999 38.8734 0.999999 36.25L0.999997 26.75C0.999997 24.1267 3.12664 22 5.75 22L15.25 22Z" fill="#00719C"/>
<path fill-rule="evenodd" clip-rule="evenodd" d="M49 46.375L59 46.375C60.3807 46.375 61.5 47.4383 61.5 48.75L61.5 58.25C61.5 59.5617 60.3807 60.625 59 60.625L49 60.625C47.6193 60.625 46.5 59.5617 46.5 58.25L46.5 48.75C46.5 47.4383 47.6193 46.375 49 46.375ZM59 44C61.7614 44 64 46.1266 64 48.75L64 58.25C64 60.8733 61.7614 63 59 63L49 63C46.2386 63 44 60.8734 44 58.25L44 48.75C44 46.1267 46.2386 44 49 44L59 44Z" fill="#00719C"/>
<path fill-rule="evenodd" clip-rule="evenodd" d="M27.75 46.375L37.25 46.375C38.5617 46.375 39.625 47.4383 39.625 48.75L39.625 58.25C39.625 59.5617 38.5617 60.625 37.25 60.625L27.75 60.625C26.4383 60.625 25.375 59.5617 25.375 58.25L25.375 48.75C25.375 47.4383 26.4383 46.375 27.75 46.375ZM37.25 44C39.8734 44 42 46.1266 42 48.75L42 58.25C42 60.8733 39.8734 63 37.25 63L27.75 63C25.1266 63 23 60.8734 23 58.25L23 48.75C23 46.1267 25.1266 44 27.75 44L37.25 44Z" fill="#00719C"/>
<path fill-rule="evenodd" clip-rule="evenodd" d="M5.75 46.375L15.25 46.375C16.5617 46.375 17.625 47.4383 17.625 48.75L17.625 58.25C17.625 59.5617 16.5617 60.625 15.25 60.625L5.75 60.625C4.43832 60.625 3.375 59.5617 3.375 58.25L3.375 48.75C3.375 47.4383 4.43832 46.375 5.75 46.375ZM15.25 44C17.8734 44 20 46.1266 20 48.75L20 58.25C20 60.8733 17.8734 63 15.25 63L5.75 63C3.12665 63 0.999999 60.8734 0.999999 58.25L0.999997 48.75C0.999997 46.1267 3.12664 44 5.75 44L15.25 44Z" fill="#00719C"/>
<path fill-rule="evenodd" clip-rule="evenodd" d="M11.4984 22.9068L11.4984 33.6968C11.4984 34.3589 12.0352 34.8957 12.6973 34.8957L23.4873 34.8957C24.1494 34.8957 24.6862 34.3589 24.6862 33.6968C24.6862 33.0346 24.1494 32.4979 23.4873 32.4979L15.5917 32.4979L31.5284 16.5612C31.9966 16.093 31.9966 15.3339 31.5284 14.8657C31.0602 14.3975 30.3011 14.3975 29.8329 14.8657L13.8962 30.8024L13.8962 22.9068C13.8962 22.2447 13.3595 21.7079 12.6973 21.7079C12.0352 21.7079 11.4984 22.2447 11.4984 22.9068Z" fill="white" fill-opacity="0.64"/>
<path fill-rule="evenodd" clip-rule="evenodd" d="M45.0673 10.9179L34.2773 10.9179C33.6152 10.9179 33.0784 11.4547 33.0784 12.1168L33.0784 22.9068C33.0784 23.5689 33.6152 24.1057 34.2773 24.1057C34.9394 24.1057 35.4762 23.5689 35.4762 22.9068L35.4762 15.0112L44.819 24.354C45.2872 24.8222 46.0463 24.8222 46.5145 24.354C46.9827 23.8858 46.9827 23.1267 46.5145 22.6585L37.1717 13.3157L45.0673 13.3157C45.7294 13.3157 46.2662 12.779 46.2662 12.1168C46.2662 11.4547 45.7294 10.9179 45.0673 10.9179Z" fill="white" fill-opacity="0.64"/>
<path fill-rule="evenodd" clip-rule="evenodd" d="M49.063 42.642L56.6508 34.8642C57.1164 34.3869 57.1164 33.6131 56.6508 33.1358L49.063 25.358C48.5974 24.8807 47.8424 24.8807 47.3768 25.358C46.9112 25.8353 46.9112 26.6091 47.3768 27.0864L52.9292 32.7778L27.1923 32.7778C26.5338 32.7778 26 33.325 26 34C26 34.675 26.5338 35.2222 27.1923 35.2222L52.9292 35.2222L47.3768 40.9136C46.9112 41.3909 46.9112 42.1647 47.3768 42.642C47.8424 43.1193 48.5974 43.1193 49.063 42.642Z" fill="white" fill-opacity="0.64"/>
<path fill-rule="evenodd" clip-rule="evenodd" d="M0.357962 14.937L8.13579 7.34922C8.61308 6.8836 9.38691 6.8836 9.8642 7.34922L17.642 14.937C18.1193 15.4026 18.1193 16.1576 17.642 16.6232C17.1648 17.0888 16.3909 17.0888 15.9136 16.6232L10.2222 11.0708L10.2222 36.8077C10.2222 37.4662 9.67499 38 9 38C8.32502 38 7.77783 37.4662 7.77783 36.8077L7.77783 11.0708L2.08637 16.6232C1.60908 17.0888 0.835249 17.0888 0.357962 16.6232C-0.119325 16.1576 -0.119325 15.4026 0.357962 14.937Z" fill="white"/>
<path fill-rule="evenodd" clip-rule="evenodd" d="M45.1684 0.338077L52.6554 7.68381C53.1149 8.13458 53.1149 8.86542 52.6554 9.31619L45.1684 16.6619C44.709 17.1127 43.9641 17.1127 43.5046 16.6619C43.0452 16.2112 43.0452 15.4803 43.5046 15.0295L48.9833 9.65427L14.1765 9.65427C13.5267 9.65427 13 9.13749 13 8.5C13 7.86251 13.5267 7.34573 14.1765 7.34573L48.9833 7.34573L43.5046 1.97046C43.0452 1.51969 43.0452 0.788847 43.5046 0.338077C43.9641 -0.112694 44.709 -0.112694 45.1684 0.338077Z" fill="white"/>
<path fill-rule="evenodd" clip-rule="evenodd" d="M19.8906 52.879L9.10065 52.879C8.43852 52.879 7.90176 52.3423 7.90176 51.6801L7.90176 40.8901C7.90176 40.228 8.43852 39.6913 9.10065 39.6913C9.76277 39.6913 10.2995 40.228 10.2995 40.8901L10.2995 48.7858L41.2223 17.863C41.6905 17.3948 42.4496 17.3948 42.9178 17.863C43.386 18.3312 43.386 19.0903 42.9178 19.5585L11.995 50.4812L19.8906 50.4812C20.5528 50.4812 21.0895 51.018 21.0895 51.6801C21.0895 52.3423 20.5528 52.879 19.8906 52.879Z" fill="white"/>
</svg>
