<svg width="63" height="63" viewBox="0 0 63 63" fill="none" xmlns="http://www.w3.org/2000/svg">
<path fill-rule="evenodd" clip-rule="evenodd" d="M15.25 59.625L5.75 59.625C4.43832 59.625 3.375 58.5617 3.375 57.25L3.375 47.75C3.375 46.4383 4.43832 45.375 5.75 45.375L15.25 45.375C16.5617 45.375 17.625 46.4383 17.625 47.75L17.625 57.25C17.625 58.5617 16.5617 59.625 15.25 59.625ZM5.75 62C3.12665 62 1 59.8734 1 57.25L0.999999 47.75C0.999999 45.1266 3.12665 43 5.75 43L15.25 43C17.8734 43 20 45.1266 20 47.75L20 57.25C20 59.8734 17.8734 62 15.25 62L5.75 62Z" fill="#00719C"/>
<path fill-rule="evenodd" clip-rule="evenodd" d="M37.25 59.625L27.75 59.625C26.4383 59.625 25.375 58.5617 25.375 57.25L25.375 47.75C25.375 46.4383 26.4383 45.375 27.75 45.375L37.25 45.375C38.5617 45.375 39.625 46.4383 39.625 47.75L39.625 57.25C39.625 58.5617 38.5617 59.625 37.25 59.625ZM27.75 62C25.1266 62 23 59.8734 23 57.25L23 47.75C23 45.1266 25.1266 43 27.75 43L37.25 43C39.8734 43 42 45.1266 42 47.75L42 57.25C42 59.8734 39.8734 62 37.25 62L27.75 62Z" fill="#00719C"/>
<path fill-rule="evenodd" clip-rule="evenodd" d="M58.25 59.625L48.75 59.625C47.4383 59.625 46.375 58.5617 46.375 57.25L46.375 47.75C46.375 46.4383 47.4383 45.375 48.75 45.375L58.25 45.375C59.5617 45.375 60.625 46.4383 60.625 47.75L60.625 57.25C60.625 58.5617 59.5617 59.625 58.25 59.625ZM48.75 62C46.1266 62 44 59.8734 44 57.25L44 47.75C44 45.1266 46.1266 43 48.75 43L58.25 43C60.8734 43 63 45.1266 63 47.75L63 57.25C63 59.8734 60.8734 62 58.25 62L48.75 62Z" fill="#00719C"/>
<path fill-rule="evenodd" clip-rule="evenodd" d="M15.25 37.625L5.75 37.625C4.43832 37.625 3.375 36.5617 3.375 35.25L3.375 25.75C3.375 24.4383 4.43832 23.375 5.75 23.375L15.25 23.375C16.5617 23.375 17.625 24.4383 17.625 25.75L17.625 35.25C17.625 36.5617 16.5617 37.625 15.25 37.625ZM5.75 40C3.12665 40 1 37.8734 1 35.25L0.999999 25.75C0.999999 23.1266 3.12665 21 5.75 21L15.25 21C17.8734 21 20 23.1266 20 25.75L20 35.25C20 37.8734 17.8734 40 15.25 40L5.75 40Z" fill="#00719C"/>
<path fill-rule="evenodd" clip-rule="evenodd" d="M37.25 37.625L27.75 37.625C26.4383 37.625 25.375 36.5617 25.375 35.25L25.375 25.75C25.375 24.4383 26.4383 23.375 27.75 23.375L37.25 23.375C38.5617 23.375 39.625 24.4383 39.625 25.75L39.625 35.25C39.625 36.5617 38.5617 37.625 37.25 37.625ZM27.75 40C25.1266 40 23 37.8734 23 35.25L23 25.75C23 23.1266 25.1266 21 27.75 21L37.25 21C39.8734 21 42 23.1266 42 25.75L42 35.25C42 37.8734 39.8734 40 37.25 40L27.75 40Z" fill="#00719C"/>
<path fill-rule="evenodd" clip-rule="evenodd" d="M58.25 37.625L48.75 37.625C47.4383 37.625 46.375 36.5617 46.375 35.25L46.375 25.75C46.375 24.4383 47.4383 23.375 48.75 23.375L58.25 23.375C59.5617 23.375 60.625 24.4383 60.625 25.75L60.625 35.25C60.625 36.5617 59.5617 37.625 58.25 37.625ZM48.75 40C46.1266 40 44 37.8734 44 35.25L44 25.75C44 23.1266 46.1266 21 48.75 21L58.25 21C60.8734 21 63 23.1266 63 25.75L63 35.25C63 37.8734 60.8734 40 58.25 40L48.75 40Z" fill="#00719C"/>
<path fill-rule="evenodd" clip-rule="evenodd" d="M15.25 16.625L5.75 16.625C4.43832 16.625 3.375 15.5617 3.375 14.25L3.375 4.75C3.375 3.43832 4.43832 2.375 5.75 2.375L15.25 2.375C16.5617 2.375 17.625 3.43832 17.625 4.75L17.625 14.25C17.625 15.5617 16.5617 16.625 15.25 16.625ZM5.75 19C3.12665 19 1 16.8734 1 14.25L0.999999 4.75C0.999999 2.12665 3.12665 1.72143e-06 5.75 1.49209e-06L15.25 6.61574e-07C17.8734 4.32233e-07 20 2.12665 20 4.75L20 14.25C20 16.8734 17.8734 19 15.25 19L5.75 19Z" fill="#00719C"/>
<path fill-rule="evenodd" clip-rule="evenodd" d="M37.25 16.625L27.75 16.625C26.4383 16.625 25.375 15.5617 25.375 14.25L25.375 4.75C25.375 3.43832 26.4383 2.375 27.75 2.375L37.25 2.375C38.5617 2.375 39.625 3.43832 39.625 4.75L39.625 14.25C39.625 15.5617 38.5617 16.625 37.25 16.625ZM27.75 19C25.1266 19 23 16.8734 23 14.25L23 4.75C23 2.12665 25.1266 1.72143e-06 27.75 1.49209e-06L37.25 6.61574e-07C39.8734 4.32233e-07 42 2.12665 42 4.75L42 14.25C42 16.8734 39.8734 19 37.25 19L27.75 19Z" fill="#00719C"/>
<path fill-rule="evenodd" clip-rule="evenodd" d="M58.25 16.625L48.75 16.625C47.4383 16.625 46.375 15.5617 46.375 14.25L46.375 4.75C46.375 3.43832 47.4383 2.375 48.75 2.375L58.25 2.375C59.5617 2.375 60.625 3.43832 60.625 4.75L60.625 14.25C60.625 15.5617 59.5617 16.625 58.25 16.625ZM48.75 19C46.1266 19 44 16.8734 44 14.25L44 4.75C44 2.12665 46.1266 1.72143e-06 48.75 1.49209e-06L58.25 6.61574e-07C60.8734 4.32233e-07 63 2.12665 63 4.75L63 14.25C63 16.8734 60.8734 19 58.25 19L48.75 19Z" fill="#00719C"/>
<path fill-rule="evenodd" clip-rule="evenodd" d="M56.7071 39.8902L56.7071 29.1002C56.7071 28.438 56.1703 27.9013 55.5082 27.9013L44.7182 27.9013C44.0561 27.9013 43.5193 28.438 43.5193 29.1002C43.5193 29.7623 44.0561 30.2991 44.7182 30.2991L52.6138 30.2991L36.6771 46.2357C36.2089 46.7039 36.2089 47.463 36.6771 47.9312C37.1453 48.3994 37.9044 48.3994 38.3726 47.9312L54.3093 31.9945L54.3093 39.8902C54.3093 40.5523 54.8461 41.089 55.5082 41.089C56.1703 41.089 56.7071 40.5523 56.7071 39.8902Z" fill="white" fill-opacity="0.64"/>
<path fill-rule="evenodd" clip-rule="evenodd" d="M23.1382 51.879L33.9282 51.879C34.5903 51.879 35.1271 51.3422 35.1271 50.6801V39.8901C35.1271 39.228 34.5903 38.6912 33.9282 38.6912C33.2661 38.6912 32.7293 39.228 32.7293 39.8901L32.7293 47.7857L23.3865 38.4429C22.9183 37.9747 22.1592 37.9747 21.691 38.4429C21.2228 38.9111 21.2228 39.6702 21.691 40.1384L31.0338 49.4812L23.1382 49.4812C22.4761 49.4812 21.9393 50.018 21.9393 50.6801C21.9393 51.3422 22.4761 51.879 23.1382 51.879Z" fill="white" fill-opacity="0.64"/>
<path fill-rule="evenodd" clip-rule="evenodd" d="M18.937 20.358L11.3492 28.1358C10.8836 28.6131 10.8836 29.3869 11.3492 29.8642L18.937 37.642C19.4026 38.1193 20.1576 38.1193 20.6232 37.642C21.0888 37.1647 21.0888 36.3909 20.6232 35.9136L15.0708 30.2222L40.8077 30.2222C41.4662 30.2222 42 29.675 42 29C42 28.325 41.4662 27.7778 40.8077 27.7778L15.0708 27.7778L20.6232 22.0864C21.0888 21.6091 21.0888 20.8353 20.6232 20.358C20.1576 19.8807 19.4026 19.8807 18.937 20.358Z" fill="white" fill-opacity="0.64"/>
<path fill-rule="evenodd" clip-rule="evenodd" d="M15.937 62.642L8.34922 54.8642C7.88359 54.3869 7.88359 53.6131 8.34922 53.1358L15.937 45.358C16.4026 44.8807 17.1576 44.8807 17.6232 45.358C18.0888 45.8353 18.0888 46.6091 17.6232 47.0864L12.0708 52.7778L37.8077 52.7778C38.4662 52.7778 39 53.325 39 54C39 54.675 38.4662 55.2222 37.8077 55.2222L12.0708 55.2222L17.6232 60.9136C18.0888 61.3909 18.0888 62.1647 17.6232 62.642C17.1576 63.1193 16.4026 63.1193 15.937 62.642Z" fill="white"/>
<path fill-rule="evenodd" clip-rule="evenodd" d="M0.357968 18.0274L8.1358 10.3532C8.61308 9.88227 9.38692 9.88227 9.86421 10.3532L17.642 18.0274C18.1193 18.4983 18.1193 19.2618 17.642 19.7328C17.1647 20.2037 16.3909 20.2037 15.9136 19.7328L10.2222 14.1171L10.2222 49.7941C10.2222 50.4601 9.67498 51 9 51C8.32501 51 7.77783 50.4601 7.77783 49.7941L7.77783 14.1171L2.08637 19.7328C1.60909 20.2037 0.835254 20.2037 0.357968 19.7328C-0.119319 19.2618 -0.119319 18.4983 0.357968 18.0274Z" fill="white"/>
<path fill-rule="evenodd" clip-rule="evenodd" d="M53.1104 43.4868L53.1104 54.2768C53.1104 54.9389 52.5736 55.4757 51.9115 55.4757L41.1215 55.4757C40.4594 55.4757 39.9226 54.9389 39.9226 54.2768C39.9226 53.6147 40.4594 53.0779 41.1215 53.0779L49.0171 53.0779L18.0944 22.1551C17.6262 21.6869 17.6262 20.9278 18.0944 20.4597C18.5626 19.9915 19.3216 19.9915 19.7898 20.4597L50.7126 51.3824L50.7126 43.4868C50.7126 42.8247 51.2494 42.2879 51.9115 42.2879C52.5736 42.2879 53.1104 42.8247 53.1104 43.4868Z" fill="white"/>
</svg>
