<svg width="62" height="62" viewBox="0 0 62 62" fill="none" xmlns="http://www.w3.org/2000/svg">
<path fill-rule="evenodd" clip-rule="evenodd" d="M2.375 14.25L2.375 4.75C2.375 3.43832 3.43832 2.375 4.75 2.375L14.25 2.375C15.5617 2.375 16.625 3.43832 16.625 4.75L16.625 14.25C16.625 15.5617 15.5617 16.625 14.25 16.625L4.75 16.625C3.43832 16.625 2.375 15.5617 2.375 14.25ZM2.07629e-07 4.75C9.29587e-08 2.12665 2.12665 -9.29587e-08 4.75 -2.07629e-07L14.25 -6.22887e-07C16.8734 -7.37558e-07 19 2.12665 19 4.75L19 14.25C19 16.8734 16.8734 19 14.25 19L4.75 19C2.12665 19 7.37558e-07 16.8734 6.22887e-07 14.25L2.07629e-07 4.75Z" fill="#00719C"/>
<path fill-rule="evenodd" clip-rule="evenodd" d="M2.375 35.25L2.375 25.75C2.375 24.4383 3.43832 23.375 4.75 23.375L14.25 23.375C15.5617 23.375 16.625 24.4383 16.625 25.75L16.625 35.25C16.625 36.5617 15.5617 37.625 14.25 37.625L4.75 37.625C3.43832 37.625 2.375 36.5617 2.375 35.25ZM2.07629e-07 25.75C9.29587e-08 23.1266 2.12665 21 4.75 21L14.25 21C16.8734 21 19 23.1266 19 25.75L19 35.25C19 37.8734 16.8734 40 14.25 40L4.75 40C2.12665 40 7.37558e-07 37.8734 6.22887e-07 35.25L2.07629e-07 25.75Z" fill="#00719C"/>
<path fill-rule="evenodd" clip-rule="evenodd" d="M2.375 57.25L2.375 47.75C2.375 46.4383 3.43832 45.375 4.75 45.375L14.25 45.375C15.5617 45.375 16.625 46.4383 16.625 47.75L16.625 57.25C16.625 58.5617 15.5617 59.625 14.25 59.625L4.75 59.625C3.43832 59.625 2.375 58.5617 2.375 57.25ZM2.07629e-07 47.75C9.29587e-08 45.1266 2.12665 43 4.75 43L14.25 43C16.8734 43 19 45.1266 19 47.75L19 57.25C19 59.8734 16.8734 62 14.25 62L4.75 62C2.12665 62 7.37558e-07 59.8734 6.22887e-07 57.25L2.07629e-07 47.75Z" fill="#00719C"/>
<path fill-rule="evenodd" clip-rule="evenodd" d="M24.375 14.25L24.375 4.75C24.375 3.43832 25.4383 2.375 26.75 2.375L36.25 2.375C37.5617 2.375 38.625 3.43832 38.625 4.75L38.625 14.25C38.625 15.5617 37.5617 16.625 36.25 16.625L26.75 16.625C25.4383 16.625 24.375 15.5617 24.375 14.25ZM22 4.75C22 2.12665 24.1266 -9.29587e-08 26.75 -2.07629e-07L36.25 -6.22887e-07C38.8734 -7.37558e-07 41 2.12665 41 4.75L41 14.25C41 16.8734 38.8734 19 36.25 19L26.75 19C24.1266 19 22 16.8734 22 14.25L22 4.75Z" fill="#00719C"/>
<path fill-rule="evenodd" clip-rule="evenodd" d="M24.375 35.25L24.375 25.75C24.375 24.4383 25.4383 23.375 26.75 23.375L36.25 23.375C37.5617 23.375 38.625 24.4383 38.625 25.75L38.625 35.25C38.625 36.5617 37.5617 37.625 36.25 37.625L26.75 37.625C25.4383 37.625 24.375 36.5617 24.375 35.25ZM22 25.75C22 23.1266 24.1266 21 26.75 21L36.25 21C38.8734 21 41 23.1266 41 25.75L41 35.25C41 37.8734 38.8734 40 36.25 40L26.75 40C24.1266 40 22 37.8734 22 35.25L22 25.75Z" fill="#00719C"/>
<path fill-rule="evenodd" clip-rule="evenodd" d="M24.375 57.25L24.375 47.75C24.375 46.4383 25.4383 45.375 26.75 45.375L36.25 45.375C37.5617 45.375 38.625 46.4383 38.625 47.75L38.625 57.25C38.625 58.5617 37.5617 59.625 36.25 59.625L26.75 59.625C25.4383 59.625 24.375 58.5617 24.375 57.25ZM22 47.75C22 45.1266 24.1266 43 26.75 43L36.25 43C38.8734 43 41 45.1266 41 47.75L41 57.25C41 59.8734 38.8734 62 36.25 62L26.75 62C24.1266 62 22 59.8734 22 57.25L22 47.75Z" fill="#00719C"/>
<path fill-rule="evenodd" clip-rule="evenodd" d="M45.375 14.25L45.375 4.75C45.375 3.43832 46.4383 2.375 47.75 2.375L57.25 2.375C58.5617 2.375 59.625 3.43832 59.625 4.75L59.625 14.25C59.625 15.5617 58.5617 16.625 57.25 16.625L47.75 16.625C46.4383 16.625 45.375 15.5617 45.375 14.25ZM43 4.75C43 2.12665 45.1266 -9.29587e-08 47.75 -2.07629e-07L57.25 -6.22887e-07C59.8734 -7.37558e-07 62 2.12665 62 4.75L62 14.25C62 16.8734 59.8734 19 57.25 19L47.75 19C45.1266 19 43 16.8734 43 14.25L43 4.75Z" fill="#00719C"/>
<path fill-rule="evenodd" clip-rule="evenodd" d="M45.375 35.25L45.375 25.75C45.375 24.4383 46.4383 23.375 47.75 23.375L57.25 23.375C58.5617 23.375 59.625 24.4383 59.625 25.75L59.625 35.25C59.625 36.5617 58.5617 37.625 57.25 37.625L47.75 37.625C46.4383 37.625 45.375 36.5617 45.375 35.25ZM43 25.75C43 23.1266 45.1266 21 47.75 21L57.25 21C59.8734 21 62 23.1266 62 25.75L62 35.25C62 37.8734 59.8734 40 57.25 40L47.75 40C45.1266 40 43 37.8734 43 35.25L43 25.75Z" fill="#00719C"/>
<path fill-rule="evenodd" clip-rule="evenodd" d="M45.375 57.25L45.375 47.75C45.375 46.4383 46.4383 45.375 47.75 45.375L57.25 45.375C58.5617 45.375 59.625 46.4383 59.625 47.75L59.625 57.25C59.625 58.5617 58.5617 59.625 57.25 59.625L47.75 59.625C46.4383 59.625 45.375 58.5617 45.375 57.25ZM43 47.75C43 45.1266 45.1266 43 47.75 43L57.25 43C59.8734 43 62 45.1266 62 47.75L62 57.25C62 59.8734 59.8734 62 57.25 62L47.75 62C45.1266 62 43 59.8734 43 57.25L43 47.75Z" fill="#00719C"/>
<path fill-rule="evenodd" clip-rule="evenodd" d="M8.35456 31.8642C7.88182 31.3869 7.88182 30.6131 8.35456 30.1358L16.0583 22.358C16.531 21.8807 17.2975 21.8807 17.7702 22.358C18.243 22.8353 18.243 23.6091 17.7702 24.0864L12.133 29.7778L49.867 29.7778L44.2298 24.0864C43.757 23.6091 43.757 22.8352 44.2298 22.358C44.7025 21.8807 45.469 21.8807 45.9417 22.358L53.6454 30.1358C54.1182 30.6131 54.1182 31.3869 53.6454 31.8642L45.9417 39.642C45.469 40.1193 44.7025 40.1193 44.2298 39.642C43.757 39.1647 43.757 38.3909 44.2298 37.9136L49.867 32.2222L12.133 32.2222L17.7702 37.9136C18.243 38.3909 18.243 39.1648 17.7702 39.642C17.2975 40.1193 16.531 40.1193 16.0583 39.642L8.35456 31.8642Z" fill="white"/>
<path fill-rule="evenodd" clip-rule="evenodd" d="M8.35456 9.8642C7.88182 9.38692 7.88182 8.61308 8.35456 8.1358L16.0583 0.357965C16.531 -0.119322 17.2975 -0.119322 17.7702 0.357965C18.243 0.835251 18.243 1.60909 17.7702 2.08637L12.133 7.77783L49.867 7.77783L44.2298 2.08637C43.757 1.60908 43.757 0.83525 44.2298 0.357963C44.7025 -0.119323 45.469 -0.119323 45.9417 0.357963L53.6454 8.1358C54.1182 8.61308 54.1182 9.38692 53.6454 9.8642L45.9417 17.642C45.469 18.1193 44.7025 18.1193 44.2298 17.642C43.757 17.1647 43.757 16.3909 44.2298 15.9136L49.867 10.2222L12.133 10.2222L17.7702 15.9136C18.243 16.3909 18.243 17.1648 17.7702 17.642C17.2975 18.1193 16.531 18.1193 16.0583 17.642L8.35456 9.8642Z" fill="white"/>
</svg>
