<svg width="62" height="63" viewBox="0 0 62 63" fill="none" xmlns="http://www.w3.org/2000/svg">
<path fill-rule="evenodd" clip-rule="evenodd" d="M14.25 60.625L4.75 60.625C3.43832 60.625 2.375 59.5617 2.375 58.25L2.375 48.75C2.375 47.4383 3.43832 46.375 4.75 46.375L14.25 46.375C15.5617 46.375 16.625 47.4383 16.625 48.75L16.625 58.25C16.625 59.5617 15.5617 60.625 14.25 60.625ZM4.75 63C2.12665 63 -1.85917e-07 60.8734 -4.15258e-07 58.25L-1.24577e-06 48.75C-1.47512e-06 46.1266 2.12665 44 4.75 44L14.25 44C16.8734 44 19 46.1266 19 48.75L19 58.25C19 60.8734 16.8734 63 14.25 63L4.75 63Z" fill="#00719C"/>
<path fill-rule="evenodd" clip-rule="evenodd" d="M36.25 60.625L26.75 60.625C25.4383 60.625 24.375 59.5617 24.375 58.25L24.375 48.75C24.375 47.4383 25.4383 46.375 26.75 46.375L36.25 46.375C37.5617 46.375 38.625 47.4383 38.625 48.75L38.625 58.25C38.625 59.5617 37.5617 60.625 36.25 60.625ZM26.75 63C24.1266 63 22 60.8734 22 58.25L22 48.75C22 46.1266 24.1266 44 26.75 44L36.25 44C38.8734 44 41 46.1266 41 48.75L41 58.25C41 60.8734 38.8734 63 36.25 63L26.75 63Z" fill="#00719C"/>
<path fill-rule="evenodd" clip-rule="evenodd" d="M57.25 60.625L47.75 60.625C46.4383 60.625 45.375 59.5617 45.375 58.25L45.375 48.75C45.375 47.4383 46.4383 46.375 47.75 46.375L57.25 46.375C58.5617 46.375 59.625 47.4383 59.625 48.75L59.625 58.25C59.625 59.5617 58.5617 60.625 57.25 60.625ZM47.75 63C45.1266 63 43 60.8734 43 58.25L43 48.75C43 46.1266 45.1266 44 47.75 44L57.25 44C59.8734 44 62 46.1266 62 48.75L62 58.25C62 60.8734 59.8734 63 57.25 63L47.75 63Z" fill="#00719C"/>
<path fill-rule="evenodd" clip-rule="evenodd" d="M14.25 38.625L4.75 38.625C3.43832 38.625 2.375 37.5617 2.375 36.25L2.375 26.75C2.375 25.4383 3.43832 24.375 4.75 24.375L14.25 24.375C15.5617 24.375 16.625 25.4383 16.625 26.75L16.625 36.25C16.625 37.5617 15.5617 38.625 14.25 38.625ZM4.75 41C2.12665 41 -1.85917e-07 38.8734 -4.15258e-07 36.25L-1.24577e-06 26.75C-1.47512e-06 24.1266 2.12665 22 4.75 22L14.25 22C16.8734 22 19 24.1266 19 26.75L19 36.25C19 38.8734 16.8734 41 14.25 41L4.75 41Z" fill="#00719C"/>
<path fill-rule="evenodd" clip-rule="evenodd" d="M36.25 38.625L26.75 38.625C25.4383 38.625 24.375 37.5617 24.375 36.25L24.375 26.75C24.375 25.4383 25.4383 24.375 26.75 24.375L36.25 24.375C37.5617 24.375 38.625 25.4383 38.625 26.75L38.625 36.25C38.625 37.5617 37.5617 38.625 36.25 38.625ZM26.75 41C24.1266 41 22 38.8734 22 36.25L22 26.75C22 24.1266 24.1266 22 26.75 22L36.25 22C38.8734 22 41 24.1266 41 26.75L41 36.25C41 38.8734 38.8734 41 36.25 41L26.75 41Z" fill="#00719C"/>
<path fill-rule="evenodd" clip-rule="evenodd" d="M57.25 38.625L47.75 38.625C46.4383 38.625 45.375 37.5617 45.375 36.25L45.375 26.75C45.375 25.4383 46.4383 24.375 47.75 24.375L57.25 24.375C58.5617 24.375 59.625 25.4383 59.625 26.75L59.625 36.25C59.625 37.5617 58.5617 38.625 57.25 38.625ZM47.75 41C45.1266 41 43 38.8734 43 36.25L43 26.75C43 24.1266 45.1266 22 47.75 22L57.25 22C59.8734 22 62 24.1266 62 26.75L62 36.25C62 38.8734 59.8734 41 57.25 41L47.75 41Z" fill="#00719C"/>
<path fill-rule="evenodd" clip-rule="evenodd" d="M14.25 17.5L4.75 17.5C3.43832 17.5 2.375 16.3807 2.375 15L2.375 5C2.375 3.61929 3.43832 2.5 4.75 2.5L14.25 2.5C15.5617 2.5 16.625 3.61929 16.625 5L16.625 15C16.625 16.3807 15.5617 17.5 14.25 17.5ZM4.75 20C2.12665 20 -1.95703e-07 17.7614 -4.37114e-07 15L-1.31134e-06 5C-1.55275e-06 2.23858 2.12665 1.72143e-06 4.75 1.49209e-06L14.25 6.61574e-07C16.8734 4.32233e-07 19 2.23858 19 5L19 15C19 17.7614 16.8734 20 14.25 20L4.75 20Z" fill="#00719C"/>
<path fill-rule="evenodd" clip-rule="evenodd" d="M36.25 17.5L26.75 17.5C25.4383 17.5 24.375 16.3807 24.375 15L24.375 5C24.375 3.61929 25.4383 2.5 26.75 2.5L36.25 2.5C37.5617 2.5 38.625 3.61929 38.625 5L38.625 15C38.625 16.3807 37.5617 17.5 36.25 17.5ZM26.75 20C24.1266 20 22 17.7614 22 15L22 5C22 2.23858 24.1266 1.72143e-06 26.75 1.49209e-06L36.25 6.61574e-07C38.8734 4.32233e-07 41 2.23858 41 5L41 15C41 17.7614 38.8734 20 36.25 20L26.75 20Z" fill="#00719C"/>
<path fill-rule="evenodd" clip-rule="evenodd" d="M57.25 17.5L47.75 17.5C46.4383 17.5 45.375 16.3807 45.375 15L45.375 5C45.375 3.61929 46.4383 2.5 47.75 2.5L57.25 2.5C58.5617 2.5 59.625 3.61929 59.625 5L59.625 15C59.625 16.3807 58.5617 17.5 57.25 17.5ZM47.75 20C45.1266 20 43 17.7614 43 15L43 5C43 2.23858 45.1266 1.72143e-06 47.75 1.49209e-06L57.25 6.61574e-07C59.8734 4.32233e-07 62 2.23858 62 5L62 15C62 17.7614 59.8734 20 57.25 20L47.75 20Z" fill="#00719C"/>
<path fill-rule="evenodd" clip-rule="evenodd" d="M53.8642 53.6532C53.3869 54.1156 52.6131 54.1156 52.1358 53.6532L44.358 46.1169C43.8807 45.6544 43.8807 44.9046 44.358 44.4422C44.8353 43.9797 45.6091 43.9797 46.0864 44.4422L51.7778 49.9569L51.7778 13.0431L46.0864 18.5578C45.6091 19.0203 44.8352 19.0203 44.358 18.5578C43.8807 18.0954 43.8807 17.3456 44.358 16.8831L52.1358 9.34685C52.6131 8.88438 53.3869 8.88438 53.8642 9.34685L61.642 16.8831C62.1193 17.3456 62.1193 18.0954 61.642 18.5578C61.1647 19.0203 60.3909 19.0203 59.9136 18.5578L54.2222 13.0431L54.2222 49.9569L59.9136 44.4422C60.3909 43.9797 61.1648 43.9797 61.642 44.4422C62.1193 44.9046 62.1193 45.6544 61.642 46.1169L53.8642 53.6532Z" fill="white"/>
<path fill-rule="evenodd" clip-rule="evenodd" d="M31.2564 8.78857C31.9186 8.78857 32.4553 9.32533 32.4553 9.98745L32.4553 20.7774C32.4553 21.4396 31.9186 21.9763 31.2564 21.9763C30.5943 21.9763 30.0576 21.4396 30.0576 20.7774V12.8818L12.5708 30.3685L20.4665 30.3685C21.1286 30.3685 21.6653 30.9053 21.6653 31.5674C21.6653 32.2296 21.1286 32.7663 20.4665 32.7663L9.67648 32.7663C9.01435 32.7663 8.47759 32.2296 8.47759 31.5674L8.47759 20.7774C8.47759 20.1153 9.01435 19.5786 9.67648 19.5786C10.3386 19.5786 10.8754 20.1153 10.8754 20.7774L10.8754 28.6731L28.3621 11.1863L20.4665 11.1863C19.8043 11.1863 19.2676 10.6496 19.2676 9.98745C19.2676 9.32533 19.8043 8.78857 20.4665 8.78857L31.2564 8.78857Z" fill="white"/>
</svg>
