<svg width="63" height="63" viewBox="0 0 63 63" fill="none" xmlns="http://www.w3.org/2000/svg">
<path fill-rule="evenodd" clip-rule="evenodd" d="M3.375 48.75L3.375 58.25C3.375 59.5617 4.43832 60.625 5.75 60.625L15.25 60.625C16.5617 60.625 17.625 59.5617 17.625 58.25L17.625 48.75C17.625 47.4383 16.5617 46.375 15.25 46.375L5.75 46.375C4.43833 46.375 3.375 47.4383 3.375 48.75ZM1 58.25C1 60.8734 3.12665 63 5.75 63L15.25 63C17.8733 63 20 60.8734 20 58.25L20 48.75C20 46.1266 17.8734 44 15.25 44L5.75 44C3.12665 44 1.00001 46.1266 1 48.75L1 58.25Z" fill="#00719C"/>
<path fill-rule="evenodd" clip-rule="evenodd" d="M3.375 26.75L3.375 36.25C3.375 37.5617 4.43832 38.625 5.75 38.625L15.25 38.625C16.5617 38.625 17.625 37.5617 17.625 36.25L17.625 26.75C17.625 25.4383 16.5617 24.375 15.25 24.375L5.75 24.375C4.43833 24.375 3.375 25.4383 3.375 26.75ZM1 36.25C1 38.8734 3.12665 41 5.75 41L15.25 41C17.8733 41 20 38.8734 20 36.25L20 26.75C20 24.1266 17.8734 22 15.25 22L5.75 22C3.12665 22 1.00001 24.1266 1 26.75L1 36.25Z" fill="#00719C"/>
<path fill-rule="evenodd" clip-rule="evenodd" d="M3.375 5.75L3.375 15.25C3.375 16.5617 4.43832 17.625 5.75 17.625L15.25 17.625C16.5617 17.625 17.625 16.5617 17.625 15.25L17.625 5.75C17.625 4.43832 16.5617 3.375 15.25 3.375L5.75 3.375C4.43833 3.375 3.375 4.43832 3.375 5.75ZM1 15.25C1 17.8734 3.12665 20 5.75 20L15.25 20C17.8733 20 20 17.8734 20 15.25L20 5.75C20 3.12665 17.8734 0.999999 15.25 0.999999L5.75 0.999996C3.12665 0.999995 1.00001 3.12664 1 5.75L1 15.25Z" fill="#00719C"/>
<path fill-rule="evenodd" clip-rule="evenodd" d="M24.375 48.75L24.375 58.25C24.375 59.5617 25.4383 60.625 26.75 60.625L36.25 60.625C37.5617 60.625 38.625 59.5617 38.625 58.25L38.625 48.75C38.625 47.4383 37.5617 46.375 36.25 46.375L26.75 46.375C25.4383 46.375 24.375 47.4383 24.375 48.75ZM22 58.25C22 60.8734 24.1266 63 26.75 63L36.25 63C38.8733 63 41 60.8734 41 58.25L41 48.75C41 46.1266 38.8734 44 36.25 44L26.75 44C24.1267 44 22 46.1266 22 48.75L22 58.25Z" fill="#00719C"/>
<path fill-rule="evenodd" clip-rule="evenodd" d="M24.375 26.75L24.375 36.25C24.375 37.5617 25.4383 38.625 26.75 38.625L36.25 38.625C37.5617 38.625 38.625 37.5617 38.625 36.25L38.625 26.75C38.625 25.4383 37.5617 24.375 36.25 24.375L26.75 24.375C25.4383 24.375 24.375 25.4383 24.375 26.75ZM22 36.25C22 38.8734 24.1266 41 26.75 41L36.25 41C38.8733 41 41 38.8734 41 36.25L41 26.75C41 24.1266 38.8734 22 36.25 22L26.75 22C24.1267 22 22 24.1266 22 26.75L22 36.25Z" fill="#00719C"/>
<path fill-rule="evenodd" clip-rule="evenodd" d="M24.375 5.75L24.375 15.25C24.375 16.5617 25.4383 17.625 26.75 17.625L36.25 17.625C37.5617 17.625 38.625 16.5617 38.625 15.25L38.625 5.75C38.625 4.43832 37.5617 3.375 36.25 3.375L26.75 3.375C25.4383 3.375 24.375 4.43832 24.375 5.75ZM22 15.25C22 17.8734 24.1266 20 26.75 20L36.25 20C38.8733 20 41 17.8734 41 15.25L41 5.75C41 3.12665 38.8734 0.999999 36.25 0.999999L26.75 0.999996C24.1267 0.999995 22 3.12664 22 5.75L22 15.25Z" fill="#00719C"/>
<path fill-rule="evenodd" clip-rule="evenodd" d="M46.375 48.75L46.375 58.25C46.375 59.5617 47.4383 60.625 48.75 60.625L58.25 60.625C59.5617 60.625 60.625 59.5617 60.625 58.25L60.625 48.75C60.625 47.4383 59.5617 46.375 58.25 46.375L48.75 46.375C47.4383 46.375 46.375 47.4383 46.375 48.75ZM44 58.25C44 60.8734 46.1266 63 48.75 63L58.25 63C60.8733 63 63 60.8734 63 58.25L63 48.75C63 46.1266 60.8734 44 58.25 44L48.75 44C46.1267 44 44 46.1266 44 48.75L44 58.25Z" fill="#00719C"/>
<path fill-rule="evenodd" clip-rule="evenodd" d="M46.375 26.75L46.375 36.25C46.375 37.5617 47.4383 38.625 48.75 38.625L58.25 38.625C59.5617 38.625 60.625 37.5617 60.625 36.25L60.625 26.75C60.625 25.4383 59.5617 24.375 58.25 24.375L48.75 24.375C47.4383 24.375 46.375 25.4383 46.375 26.75ZM44 36.25C44 38.8734 46.1266 41 48.75 41L58.25 41C60.8733 41 63 38.8734 63 36.25L63 26.75C63 24.1266 60.8734 22 58.25 22L48.75 22C46.1267 22 44 24.1266 44 26.75L44 36.25Z" fill="#00719C"/>
<path fill-rule="evenodd" clip-rule="evenodd" d="M46.375 5.75L46.375 15.25C46.375 16.5617 47.4383 17.625 48.75 17.625L58.25 17.625C59.5617 17.625 60.625 16.5617 60.625 15.25L60.625 5.75C60.625 4.43832 59.5617 3.375 58.25 3.375L48.75 3.375C47.4383 3.375 46.375 4.43832 46.375 5.75ZM44 15.25C44 17.8734 46.1266 20 48.75 20L58.25 20C60.8733 20 63 17.8734 63 15.25L63 5.75C63 3.12665 60.8734 0.999999 58.25 0.999999L48.75 0.999996C46.1267 0.999995 44 3.12664 44 5.75L44 15.25Z" fill="#00719C"/>
<path fill-rule="evenodd" clip-rule="evenodd" d="M22.8614 10.9179L33.6514 10.9179C34.3136 10.9179 34.8503 11.4547 34.8503 12.1168L34.8503 22.9068C34.8503 23.5689 34.3135 24.1057 33.6514 24.1057C32.9893 24.1057 32.4525 23.5689 32.4525 22.9068L32.4525 15.0112L16.5159 30.9479C16.0477 31.4161 15.2886 31.4161 14.8204 30.9479C14.3522 30.4797 14.3522 29.7206 14.8204 29.2524L30.7571 13.3157L22.8614 13.3157C22.1993 13.3157 21.6626 12.779 21.6626 12.1168C21.6626 11.4547 22.1993 10.9179 22.8614 10.9179Z" fill="white" fill-opacity="0.64"/>
<path fill-rule="evenodd" clip-rule="evenodd" d="M10.8725 44.4868L10.8725 33.6968C10.8725 33.0347 11.4093 32.4979 12.0714 32.4979L22.8614 32.4979C23.5235 32.4979 24.0603 33.0347 24.0603 33.6968C24.0603 34.3589 23.5235 34.8957 22.8614 34.8957L14.9658 34.8957L24.3086 44.2385C24.7768 44.7067 24.7768 45.4658 24.3086 45.934C23.8404 46.4022 23.0813 46.4022 22.6131 45.934L13.2703 36.5912L13.2703 44.4868C13.2703 45.1489 12.7335 45.6857 12.0714 45.6857C11.4093 45.6857 10.8725 45.1489 10.8725 44.4868Z" fill="white" fill-opacity="0.64"/>
<path fill-rule="evenodd" clip-rule="evenodd" d="M41.6619 48.063L34.3162 55.6508C33.8654 56.1164 33.1346 56.1164 32.6838 55.6508L25.3381 48.063C24.8873 47.5974 24.8873 46.8424 25.3381 46.3768C25.7889 45.9112 26.5197 45.9112 26.9705 46.3768L32.3457 51.9292L32.3457 26.1923C32.3457 25.5338 32.8625 25 33.5 25C34.1375 25 34.6543 25.5338 34.6543 26.1923L34.6543 51.9292L40.0295 46.3768C40.4803 45.9112 41.2111 45.9112 41.6619 46.3768C42.1127 46.8424 42.1127 47.5974 41.6619 48.063Z" fill="white" fill-opacity="0.64"/>
<path fill-rule="evenodd" clip-rule="evenodd" d="M14.937 0.338072L7.34922 7.6838C6.88359 8.13457 6.88359 8.86542 7.34922 9.31619L14.937 16.6619C15.4026 17.1127 16.1576 17.1127 16.6232 16.6619C17.0888 16.2112 17.0888 15.4803 16.6232 15.0295L11.0708 9.65427L36.8077 9.65427C37.4662 9.65427 38 9.13749 38 8.5C38 7.86252 37.4662 7.34573 36.8077 7.34573L11.0708 7.34573L16.6232 1.97046C17.0888 1.51969 17.0888 0.788843 16.6232 0.338072C16.1576 -0.112698 15.4026 -0.112699 14.937 0.338072Z" fill="white"/>
<path fill-rule="evenodd" clip-rule="evenodd" d="M0.338072 44.9726L7.6838 52.6468C8.13457 53.1177 8.86542 53.1177 9.31619 52.6468L16.6619 44.9726C17.1127 44.5017 17.1127 43.7382 16.6619 43.2672C16.2112 42.7963 15.4803 42.7963 15.0295 43.2672L9.65427 48.8829L9.65427 13.2059C9.65427 12.5399 9.13749 12 8.5 12C7.86252 12 7.34573 12.5399 7.34573 13.2059L7.34573 48.8829L1.97046 43.2672C1.51969 42.7963 0.788843 42.7963 0.338073 43.2672C-0.112698 43.7382 -0.112698 44.5017 0.338072 44.9726Z" fill="white"/>
<path fill-rule="evenodd" clip-rule="evenodd" d="M52.8336 19.3102L52.8336 8.52021C52.8336 7.85808 52.2968 7.32132 51.6347 7.32132L40.8447 7.32132C40.1826 7.32132 39.6458 7.85808 39.6458 8.52021C39.6458 9.18233 40.1826 9.71909 40.8447 9.71909L48.7403 9.7191L17.8176 40.6419C17.3494 41.1101 17.3494 41.8691 17.8176 42.3373C18.2858 42.8055 19.0449 42.8055 19.5131 42.3373L50.4358 11.4146L50.4358 19.3102C50.4358 19.9723 50.9726 20.5091 51.6347 20.5091C52.2968 20.5091 52.8336 19.9723 52.8336 19.3102Z" fill="white"/>
</svg>
