<svg width="64" height="62" viewBox="0 0 64 62" fill="none" xmlns="http://www.w3.org/2000/svg">
<path fill-rule="evenodd" clip-rule="evenodd" d="M14.25 2.375H4.75C3.43832 2.375 2.375 3.43832 2.375 4.75V14.25C2.375 15.5617 3.43832 16.625 4.75 16.625H14.25C15.5617 16.625 16.625 15.5617 16.625 14.25V4.75C16.625 3.43832 15.5617 2.375 14.25 2.375ZM4.75 0C2.12665 0 0 2.12665 0 4.75V14.25C0 16.8734 2.12665 19 4.75 19H14.25C16.8734 19 19 16.8734 19 14.25V4.75C19 2.12665 16.8734 0 14.25 0H4.75Z" fill="#00719C"/>
<path fill-rule="evenodd" clip-rule="evenodd" d="M36.25 2.375H26.75C25.4383 2.375 24.375 3.43832 24.375 4.75V14.25C24.375 15.5617 25.4383 16.625 26.75 16.625H36.25C37.5617 16.625 38.625 15.5617 38.625 14.25V4.75C38.625 3.43832 37.5617 2.375 36.25 2.375ZM26.75 0C24.1266 0 22 2.12665 22 4.75V14.25C22 16.8734 24.1266 19 26.75 19H36.25C38.8734 19 41 16.8734 41 14.25V4.75C41 2.12665 38.8734 0 36.25 0H26.75Z" fill="#00719C"/>
<path fill-rule="evenodd" clip-rule="evenodd" d="M58 2.375H48C46.6193 2.375 45.5 3.43832 45.5 4.75V14.25C45.5 15.5617 46.6193 16.625 48 16.625H58C59.3807 16.625 60.5 15.5617 60.5 14.25V4.75C60.5 3.43832 59.3807 2.375 58 2.375ZM48 0C45.2386 0 43 2.12665 43 4.75V14.25C43 16.8734 45.2386 19 48 19H58C60.7614 19 63 16.8734 63 14.25V4.75C63 2.12665 60.7614 0 58 0H48Z" fill="#00719C"/>
<path fill-rule="evenodd" clip-rule="evenodd" d="M14.25 24.375H4.75C3.43832 24.375 2.375 25.4383 2.375 26.75V36.25C2.375 37.5617 3.43832 38.625 4.75 38.625H14.25C15.5617 38.625 16.625 37.5617 16.625 36.25V26.75C16.625 25.4383 15.5617 24.375 14.25 24.375ZM4.75 22C2.12665 22 0 24.1266 0 26.75V36.25C0 38.8734 2.12665 41 4.75 41H14.25C16.8734 41 19 38.8734 19 36.25V26.75C19 24.1266 16.8734 22 14.25 22H4.75Z" fill="#00719C"/>
<path fill-rule="evenodd" clip-rule="evenodd" d="M36.25 24.375H26.75C25.4383 24.375 24.375 25.4383 24.375 26.75V36.25C24.375 37.5617 25.4383 38.625 26.75 38.625H36.25C37.5617 38.625 38.625 37.5617 38.625 36.25V26.75C38.625 25.4383 37.5617 24.375 36.25 24.375ZM26.75 22C24.1266 22 22 24.1266 22 26.75V36.25C22 38.8734 24.1266 41 26.75 41H36.25C38.8734 41 41 38.8734 41 36.25V26.75C41 24.1266 38.8734 22 36.25 22H26.75Z" fill="#00719C"/>
<path fill-rule="evenodd" clip-rule="evenodd" d="M58 24.375H48C46.6193 24.375 45.5 25.4383 45.5 26.75V36.25C45.5 37.5617 46.6193 38.625 48 38.625H58C59.3807 38.625 60.5 37.5617 60.5 36.25V26.75C60.5 25.4383 59.3807 24.375 58 24.375ZM48 22C45.2386 22 43 24.1266 43 26.75V36.25C43 38.8734 45.2386 41 48 41H58C60.7614 41 63 38.8734 63 36.25V26.75C63 24.1266 60.7614 22 58 22H48Z" fill="#00719C"/>
<path fill-rule="evenodd" clip-rule="evenodd" d="M14.25 45.375H4.75C3.43832 45.375 2.375 46.4383 2.375 47.75V57.25C2.375 58.5617 3.43832 59.625 4.75 59.625H14.25C15.5617 59.625 16.625 58.5617 16.625 57.25V47.75C16.625 46.4383 15.5617 45.375 14.25 45.375ZM4.75 43C2.12665 43 0 45.1266 0 47.75V57.25C0 59.8734 2.12665 62 4.75 62H14.25C16.8734 62 19 59.8734 19 57.25V47.75C19 45.1266 16.8734 43 14.25 43H4.75Z" fill="#00719C"/>
<path fill-rule="evenodd" clip-rule="evenodd" d="M36.25 45.375H26.75C25.4383 45.375 24.375 46.4383 24.375 47.75V57.25C24.375 58.5617 25.4383 59.625 26.75 59.625H36.25C37.5617 59.625 38.625 58.5617 38.625 57.25V47.75C38.625 46.4383 37.5617 45.375 36.25 45.375ZM26.75 43C24.1266 43 22 45.1266 22 47.75V57.25C22 59.8734 24.1266 62 26.75 62H36.25C38.8734 62 41 59.8734 41 57.25V47.75C41 45.1266 38.8734 43 36.25 43H26.75Z" fill="#00719C"/>
<path fill-rule="evenodd" clip-rule="evenodd" d="M58 45.375H48C46.6193 45.375 45.5 46.4383 45.5 47.75V57.25C45.5 58.5617 46.6193 59.625 48 59.625H58C59.3807 59.625 60.5 58.5617 60.5 57.25V47.75C60.5 46.4383 59.3807 45.375 58 45.375ZM48 43C45.2386 43 43 45.1266 43 47.75V57.25C43 59.8734 45.2386 62 48 62H58C60.7614 62 63 59.8734 63 57.25V47.75C63 45.1266 60.7614 43 58 43H48Z" fill="#00719C"/>
<path fill-rule="evenodd" clip-rule="evenodd" d="M54.1358 8.35456C54.6131 7.88182 55.3869 7.88182 55.8642 8.35456L63.642 16.0583C64.1193 16.531 64.1193 17.2975 63.642 17.7702C63.1647 18.243 62.3909 18.243 61.9136 17.7702L56.2222 12.133L56.2222 49.867L61.9136 44.2298C62.3909 43.757 63.1647 43.757 63.642 44.2298C64.1193 44.7025 64.1193 45.469 63.642 45.9417L55.8642 53.6454C55.3869 54.1182 54.6131 54.1182 54.1358 53.6454L46.358 45.9417C45.8807 45.469 45.8807 44.7025 46.358 44.2298C46.8353 43.757 47.6091 43.757 48.0864 44.2298L53.7778 49.867L53.7778 12.133L48.0864 17.7702C47.6091 18.243 46.8353 18.243 46.358 17.7702C45.8807 17.2975 45.8807 16.531 46.358 16.0583L54.1358 8.35456Z" fill="white"/>
<path fill-rule="evenodd" clip-rule="evenodd" d="M29.6806 54.0153C29.0185 54.0153 28.4817 53.4785 28.4817 52.8164L28.4817 42.0264C28.4817 41.3643 29.0185 40.8275 29.6806 40.8275C30.3428 40.8275 30.8795 41.3643 30.8795 42.0264V49.922L48.3662 32.4353L40.4706 32.4353C39.8085 32.4353 39.2717 31.8985 39.2717 31.2364C39.2717 30.5743 39.8085 30.0375 40.4706 30.0375L51.2606 30.0375C51.9227 30.0375 52.4595 30.5743 52.4595 31.2364L52.4595 42.0264C52.4595 42.6885 51.9227 43.2253 51.2606 43.2253C50.5985 43.2253 50.0617 42.6885 50.0617 42.0264L50.0617 34.1308L32.575 51.6175L40.4706 51.6175C41.1327 51.6175 41.6695 52.1543 41.6695 52.8164C41.6695 53.4785 41.1327 54.0153 40.4706 54.0153L29.6806 54.0153Z" fill="white"/>
</svg>
