<svg width="62" height="62" viewBox="0 0 62 62" fill="none" xmlns="http://www.w3.org/2000/svg">
<path fill-rule="evenodd" clip-rule="evenodd" d="M59.625 47.75L59.625 57.25C59.625 58.5617 58.5617 59.625 57.25 59.625L47.75 59.625C46.4383 59.625 45.375 58.5617 45.375 57.25L45.375 47.75C45.375 46.4383 46.4383 45.375 47.75 45.375L57.25 45.375C58.5617 45.375 59.625 46.4383 59.625 47.75ZM62 57.25C62 59.8734 59.8734 62 57.25 62L47.75 62C45.1266 62 43 59.8734 43 57.25L43 47.75C43 45.1266 45.1266 43 47.75 43L57.25 43C59.8734 43 62 45.1266 62 47.75L62 57.25Z" fill="#00719C"/>
<path fill-rule="evenodd" clip-rule="evenodd" d="M59.625 26L59.625 36C59.625 37.3807 58.5617 38.5 57.25 38.5L47.75 38.5C46.4383 38.5 45.375 37.3807 45.375 36L45.375 26C45.375 24.6193 46.4383 23.5 47.75 23.5L57.25 23.5C58.5617 23.5 59.625 24.6193 59.625 26ZM62 36C62 38.7614 59.8734 41 57.25 41L47.75 41C45.1266 41 43 38.7614 43 36L43 26C43 23.2386 45.1266 21 47.75 21L57.25 21C59.8734 21 62 23.2386 62 26L62 36Z" fill="#00719C"/>
<path fill-rule="evenodd" clip-rule="evenodd" d="M59.625 4.75L59.625 14.25C59.625 15.5617 58.5617 16.625 57.25 16.625L47.75 16.625C46.4383 16.625 45.375 15.5617 45.375 14.25L45.375 4.75C45.375 3.43832 46.4383 2.375 47.75 2.375L57.25 2.375C58.5617 2.375 59.625 3.43832 59.625 4.75ZM62 14.25C62 16.8734 59.8734 19 57.25 19L47.75 19C45.1266 19 43 16.8734 43 14.25L43 4.75C43 2.12665 45.1266 -7.37558e-07 47.75 -6.22887e-07L57.25 -2.07629e-07C59.8734 -9.29587e-08 62 2.12665 62 4.75L62 14.25Z" fill="#00719C"/>
<path fill-rule="evenodd" clip-rule="evenodd" d="M38.5 47.75L38.5 57.25C38.5 58.5617 37.3807 59.625 36 59.625L26 59.625C24.6193 59.625 23.5 58.5617 23.5 57.25L23.5 47.75C23.5 46.4383 24.6193 45.375 26 45.375L36 45.375C37.3807 45.375 38.5 46.4383 38.5 47.75ZM41 57.25C41 59.8734 38.7614 62 36 62L26 62C23.2386 62 21 59.8734 21 57.25L21 47.75C21 45.1266 23.2386 43 26 43L36 43C38.7614 43 41 45.1266 41 47.75L41 57.25Z" fill="#00719C"/>
<path fill-rule="evenodd" clip-rule="evenodd" d="M38.5 26L38.5 36C38.5 37.3807 37.3807 38.5 36 38.5L26 38.5C24.6193 38.5 23.5 37.3807 23.5 36L23.5 26C23.5 24.6193 24.6193 23.5 26 23.5L36 23.5C37.3807 23.5 38.5 24.6193 38.5 26ZM41 36C41 38.7614 38.7614 41 36 41L26 41C23.2386 41 21 38.7614 21 36L21 26C21 23.2386 23.2386 21 26 21L36 21C38.7614 21 41 23.2386 41 26L41 36Z" fill="#00719C"/>
<path fill-rule="evenodd" clip-rule="evenodd" d="M38.5 4.75L38.5 14.25C38.5 15.5617 37.3807 16.625 36 16.625L26 16.625C24.6193 16.625 23.5 15.5617 23.5 14.25L23.5 4.75C23.5 3.43832 24.6193 2.375 26 2.375L36 2.375C37.3807 2.375 38.5 3.43832 38.5 4.75ZM41 14.25C41 16.8734 38.7614 19 36 19L26 19C23.2386 19 21 16.8734 21 14.25L21 4.75C21 2.12665 23.2386 -7.76376e-07 26 -6.55671e-07L36 -2.18557e-07C38.7614 -9.78513e-08 41 2.12665 41 4.75L41 14.25Z" fill="#00719C"/>
<path fill-rule="evenodd" clip-rule="evenodd" d="M16.625 47.75L16.625 57.25C16.625 58.5617 15.5617 59.625 14.25 59.625L4.75 59.625C3.43832 59.625 2.375 58.5617 2.375 57.25L2.375 47.75C2.375 46.4383 3.43832 45.375 4.75 45.375L14.25 45.375C15.5617 45.375 16.625 46.4383 16.625 47.75ZM19 57.25C19 59.8734 16.8734 62 14.25 62L4.75 62C2.12665 62 9.29587e-08 59.8734 2.07629e-07 57.25L6.22887e-07 47.75C7.37558e-07 45.1266 2.12665 43 4.75 43L14.25 43C16.8734 43 19 45.1266 19 47.75L19 57.25Z" fill="#00719C"/>
<path fill-rule="evenodd" clip-rule="evenodd" d="M16.625 26L16.625 36C16.625 37.3807 15.5617 38.5 14.25 38.5L4.75 38.5C3.43832 38.5 2.375 37.3807 2.375 36L2.375 26C2.375 24.6193 3.43832 23.5 4.75 23.5L14.25 23.5C15.5617 23.5 16.625 24.6193 16.625 26ZM19 36C19 38.7614 16.8734 41 14.25 41L4.75 41C2.12665 41 9.78513e-08 38.7614 2.18557e-07 36L6.55671e-07 26C7.76376e-07 23.2386 2.12665 21 4.75 21L14.25 21C16.8734 21 19 23.2386 19 26L19 36Z" fill="#00719C"/>
<path fill-rule="evenodd" clip-rule="evenodd" d="M16.625 4.75L16.625 14.25C16.625 15.5617 15.5617 16.625 14.25 16.625L4.75 16.625C3.43832 16.625 2.375 15.5617 2.375 14.25L2.375 4.75C2.375 3.43832 3.43832 2.375 4.75 2.375L14.25 2.375C15.5617 2.375 16.625 3.43832 16.625 4.75ZM19 14.25C19 16.8734 16.8734 19 14.25 19L4.75 19C2.12665 19 9.29587e-08 16.8734 2.07629e-07 14.25L6.22887e-07 4.75C7.37558e-07 2.12665 2.12665 -7.37558e-07 4.75 -6.22887e-07L14.25 -2.07629e-07C16.8734 -9.29587e-08 19 2.12665 19 4.75L19 14.25Z" fill="#00719C"/>
<path fill-rule="evenodd" clip-rule="evenodd" d="M52.0589 50.7497C52.0589 51.4118 51.5221 51.9486 50.86 51.9486L40.07 51.9486C39.4079 51.9486 38.8711 51.4118 38.8711 50.7497C38.8711 50.0875 39.4079 49.5508 40.07 49.5508L47.9657 49.5508L8.89897 10.4841L8.89897 18.3797C8.89897 19.0418 8.36221 19.5786 7.70008 19.5786C7.03795 19.5786 6.50119 19.0418 6.50119 18.3797L6.50119 7.58972C6.50119 6.9276 7.03795 6.39084 7.70008 6.39084L18.4901 6.39084C19.1522 6.39084 19.689 6.9276 19.689 7.58973C19.689 8.25186 19.1522 8.78861 18.4901 8.78861L10.5945 8.78861L49.6611 47.8553L49.6611 39.9597C49.6611 39.2976 50.1979 38.7608 50.86 38.7608C51.5221 38.7608 52.0589 39.2976 52.0589 39.9597L52.0589 50.7497Z" fill="white"/>
<path fill-rule="evenodd" clip-rule="evenodd" d="M32.8767 9.98748C33.5389 9.98748 34.0756 10.5242 34.0756 11.1864L34.0756 21.9764C34.0756 22.6385 33.5389 23.1752 32.8767 23.1752C32.2146 23.1752 31.6779 22.6385 31.6779 21.9764V14.0807L14.1911 31.5675L22.0868 31.5675C22.7489 31.5675 23.2856 32.1042 23.2856 32.7663C23.2856 33.4285 22.7489 33.9652 22.0868 33.9652L11.2968 33.9652C10.6346 33.9652 10.0979 33.4285 10.0979 32.7663L10.0979 21.9764C10.0979 21.3142 10.6346 20.7775 11.2968 20.7775C11.9589 20.7775 12.4957 21.3142 12.4957 21.9764L12.4957 29.872L29.9824 12.3853L22.0868 12.3853C21.4246 12.3853 20.8879 11.8485 20.8879 11.1864C20.8879 10.5242 21.4246 9.98748 22.0868 9.98748L32.8767 9.98748Z" fill="white"/>
</svg>
